<svg id="Layer_1" data-name="Layer 1" xmlns="http://www.w3.org/2000/svg" xmlns:xlink="http://www.w3.org/1999/xlink" viewBox="0 0 1140.83 418.83"><defs><style>.cls-1{fill:url(#linear-gradient);}.cls-2{fill:url(#linear-gradient-2);}.cls-3{fill:url(#linear-gradient-3);}.cls-4{fill:url(#linear-gradient-4);}.cls-5{fill:url(#linear-gradient-5);}.cls-6{fill:url(#linear-gradient-6);}.cls-7{fill:url(#linear-gradient-7);}.cls-8{fill:url(#linear-gradient-8);}.cls-9{fill:url(#linear-gradient-9);}.cls-10{fill:url(#linear-gradient-10);}.cls-11{fill:url(#linear-gradient-11);}.cls-12{fill:url(#linear-gradient-12);}.cls-13{fill:url(#linear-gradient-13);}.cls-14{fill:url(#linear-gradient-14);}.cls-15{fill:url(#linear-gradient-15);}.cls-16{fill:url(#linear-gradient-16);}.cls-17{fill:url(#linear-gradient-17);}.cls-18{fill:url(#linear-gradient-18);}.cls-19{fill:url(#linear-gradient-19);}.cls-20{fill:url(#linear-gradient-20);}.cls-21{fill:url(#linear-gradient-21);}.cls-22{fill:url(#linear-gradient-22);}.cls-23{fill:url(#linear-gradient-23);}.cls-24{fill:url(#linear-gradient-24);}.cls-25{fill:url(#linear-gradient-25);}.cls-26{fill:url(#linear-gradient-26);}.cls-27{fill:url(#linear-gradient-27);}.cls-28{fill:url(#linear-gradient-28);}.cls-29{fill:url(#linear-gradient-29);}.cls-30{fill:url(#linear-gradient-30);}.cls-31{fill:url(#linear-gradient-31);}.cls-32{fill:url(#linear-gradient-32);}.cls-33{fill:url(#linear-gradient-33);}.cls-34{fill:url(#linear-gradient-34);}.cls-35{fill:url(#linear-gradient-35);}.cls-36{fill:url(#linear-gradient-36);}.cls-37{fill:url(#linear-gradient-37);}.cls-38{fill:url(#linear-gradient-38);}.cls-39{fill:url(#linear-gradient-39);}.cls-40{fill:url(#linear-gradient-40);}.cls-41{fill:url(#linear-gradient-41);}.cls-42{fill:url(#linear-gradient-42);}.cls-43{fill:url(#linear-gradient-43);}.cls-44{fill:url(#linear-gradient-44);}.cls-45{fill:url(#linear-gradient-45);}.cls-46{fill:url(#linear-gradient-46);}.cls-47{fill:url(#linear-gradient-47);}.cls-48{fill:url(#linear-gradient-48);}.cls-49{fill:url(#linear-gradient-49);}.cls-50{fill:url(#linear-gradient-50);}.cls-51{fill:url(#linear-gradient-51);}.cls-52{fill:url(#linear-gradient-52);}.cls-53{fill:url(#linear-gradient-53);}.cls-54{fill:url(#linear-gradient-54);}.cls-55{fill:url(#linear-gradient-55);}.cls-56{fill:url(#linear-gradient-56);}.cls-57{fill:url(#linear-gradient-57);}.cls-58{fill:url(#linear-gradient-58);}.cls-59{fill:url(#linear-gradient-59);}.cls-60{fill:url(#linear-gradient-60);}.cls-61{fill:url(#linear-gradient-61);}.cls-62{fill:url(#linear-gradient-62);}.cls-63{fill:url(#linear-gradient-63);}.cls-64{fill:url(#linear-gradient-64);}.cls-65{fill:url(#linear-gradient-65);}.cls-66{fill:url(#linear-gradient-66);}.cls-67{fill:url(#linear-gradient-67);}.cls-68{fill:url(#linear-gradient-68);}.cls-69{fill:url(#linear-gradient-69);}.cls-70{fill:url(#linear-gradient-70);}.cls-71{fill:#945b30;}</style><linearGradient id="linear-gradient" x1="87.45" y1="192.62" x2="99.41" y2="192.62" gradientUnits="userSpaceOnUse"><stop offset="0" stop-color="#bb6c3a"/><stop offset="0.23" stop-color="#bd7134"/><stop offset="0.86" stop-color="#c27a28"/></linearGradient><linearGradient id="linear-gradient-2" x1="92.58" y1="198.04" x2="94.38" y2="198.04" xlink:href="#linear-gradient"/><linearGradient id="linear-gradient-3" x1="87.03" y1="194.36" x2="87.45" y2="194.36" xlink:href="#linear-gradient"/><linearGradient id="linear-gradient-4" x1="84.83" y1="194.91" x2="87.03" y2="194.91" xlink:href="#linear-gradient"/><linearGradient id="linear-gradient-5" x1="57.92" y1="279.6" x2="58.09" y2="279.6" xlink:href="#linear-gradient"/><linearGradient id="linear-gradient-6" x1="138.02" y1="126.04" x2="138.18" y2="126.04" xlink:href="#linear-gradient"/><linearGradient id="linear-gradient-7" x1="70.02" y1="281.66" x2="70.06" y2="281.66" xlink:href="#linear-gradient"/><linearGradient id="linear-gradient-8" x1="41.09" y1="240.19" x2="41.82" y2="240.19" xlink:href="#linear-gradient"/><linearGradient id="linear-gradient-9" x1="99.04" y1="208.88" x2="100.52" y2="208.88" xlink:href="#linear-gradient"/><linearGradient id="linear-gradient-10" x1="58.44" y1="243.18" x2="59.54" y2="243.18" xlink:href="#linear-gradient"/><linearGradient id="linear-gradient-11" x1="27.61" y1="162.06" x2="141.13" y2="162.06" xlink:href="#linear-gradient"/><linearGradient id="linear-gradient-12" x1="72.05" y1="280.05" x2="72.09" y2="280.05" xlink:href="#linear-gradient"/><linearGradient id="linear-gradient-13" x1="101.81" y1="208" x2="103.47" y2="208" xlink:href="#linear-gradient"/><linearGradient id="linear-gradient-14" x1="43.85" y1="148.48" x2="44.96" y2="148.48" xlink:href="#linear-gradient"/><linearGradient id="linear-gradient-15" x1="65.8" y1="196.6" x2="67.67" y2="196.6" xlink:href="#linear-gradient"/><linearGradient id="linear-gradient-16" x1="59.54" y1="195.83" x2="60.84" y2="195.83" xlink:href="#linear-gradient"/><linearGradient id="linear-gradient-17" x1="44.78" y1="161.75" x2="45.52" y2="161.75" xlink:href="#linear-gradient"/><linearGradient id="linear-gradient-18" x1="85.39" y1="200.04" x2="85.8" y2="200.04" xlink:href="#linear-gradient"/><linearGradient id="linear-gradient-19" x1="69.05" y1="196.6" x2="75.79" y2="196.6" xlink:href="#linear-gradient"/><linearGradient id="linear-gradient-20" x1="83.54" y1="200.47" x2="84.83" y2="200.47" xlink:href="#linear-gradient"/><linearGradient id="linear-gradient-21" x1="76.16" y1="195.53" x2="83.54" y2="195.53" xlink:href="#linear-gradient"/><linearGradient id="linear-gradient-22" x1="51.98" y1="229.13" x2="52.3" y2="229.13" xlink:href="#linear-gradient"/><linearGradient id="linear-gradient-23" x1="91.11" y1="198.15" x2="92.21" y2="198.15" xlink:href="#linear-gradient"/><linearGradient id="linear-gradient-24" x1="92.95" y1="201.03" x2="94.8" y2="201.03" xlink:href="#linear-gradient"/><linearGradient id="linear-gradient-25" x1="85.8" y1="198.6" x2="88.52" y2="198.6" xlink:href="#linear-gradient"/><linearGradient id="linear-gradient-26" x1="116.17" y1="178.22" x2="116.33" y2="178.22" xlink:href="#linear-gradient"/><linearGradient id="linear-gradient-27" x1="42.46" y1="144.27" x2="43.67" y2="144.27" xlink:href="#linear-gradient"/><linearGradient id="linear-gradient-28" x1="45.2" y1="112.96" x2="45.33" y2="112.96" xlink:href="#linear-gradient"/><linearGradient id="linear-gradient-29" x1="382.19" y1="133.87" x2="383.3" y2="133.87" gradientUnits="userSpaceOnUse"><stop offset="0" stop-color="#945b30"/><stop offset="0.56" stop-color="#c27a28"/><stop offset="1" stop-color="#945b30"/></linearGradient><linearGradient id="linear-gradient-30" x1="375.73" y1="166.07" x2="376.84" y2="166.07" xlink:href="#linear-gradient-29"/><linearGradient id="linear-gradient-31" x1="376.84" y1="149.36" x2="380.53" y2="149.36" xlink:href="#linear-gradient-29"/><linearGradient id="linear-gradient-32" x1="377.95" y1="47.91" x2="379.42" y2="47.91" xlink:href="#linear-gradient-29"/><linearGradient id="linear-gradient-33" x1="379.79" y1="144.38" x2="380.05" y2="144.38" xlink:href="#linear-gradient-29"/><linearGradient id="linear-gradient-34" x1="386.07" y1="47.8" x2="386.21" y2="47.8" xlink:href="#linear-gradient-29"/><linearGradient id="linear-gradient-35" x1="386.25" y1="130.33" x2="386.99" y2="130.33" xlink:href="#linear-gradient-29"/><linearGradient id="linear-gradient-36" x1="384.22" y1="128.89" x2="384.96" y2="128.89" xlink:href="#linear-gradient-29"/><linearGradient id="linear-gradient-37" x1="163.09" y1="137.97" x2="505.94" y2="137.97" gradientUnits="userSpaceOnUse"><stop offset="0" stop-color="#c27a28"/><stop offset="0.6" stop-color="#945b30"/><stop offset="1" stop-color="#c27a28"/></linearGradient><linearGradient id="linear-gradient-38" x1="602.95" y1="243.18" x2="604.06" y2="243.18" gradientUnits="userSpaceOnUse"><stop offset="0" stop-color="#bd6d3a"/><stop offset="0.56" stop-color="#c27a28"/></linearGradient><linearGradient id="linear-gradient-39" x1="629.9" y1="200.04" x2="630.31" y2="200.04" xlink:href="#linear-gradient-38"/><linearGradient id="linear-gradient-40" x1="628.05" y1="200.47" x2="629.35" y2="200.47" xlink:href="#linear-gradient-38"/><linearGradient id="linear-gradient-41" x1="630.31" y1="198.6" x2="633.04" y2="198.6" xlink:href="#linear-gradient-38"/><linearGradient id="linear-gradient-42" x1="613.57" y1="196.6" x2="620.3" y2="196.6" xlink:href="#linear-gradient-38"/><linearGradient id="linear-gradient-43" x1="635.62" y1="198.15" x2="636.73" y2="198.15" xlink:href="#linear-gradient-38"/><linearGradient id="linear-gradient-44" x1="620.67" y1="195.53" x2="628.05" y2="195.53" xlink:href="#linear-gradient-38"/><linearGradient id="linear-gradient-45" x1="629.35" y1="194.91" x2="631.55" y2="194.91" xlink:href="#linear-gradient-38"/><linearGradient id="linear-gradient-46" x1="631.55" y1="194.36" x2="631.96" y2="194.36" xlink:href="#linear-gradient-38"/><linearGradient id="linear-gradient-47" x1="637.47" y1="201.03" x2="639.31" y2="201.03" xlink:href="#linear-gradient-38"/><linearGradient id="linear-gradient-48" x1="572.13" y1="162.06" x2="685.64" y2="162.06" xlink:href="#linear-gradient-38"/><linearGradient id="linear-gradient-49" x1="631.96" y1="192.62" x2="643.93" y2="192.62" xlink:href="#linear-gradient-38"/><linearGradient id="linear-gradient-50" x1="610.31" y1="196.6" x2="612.18" y2="196.6" xlink:href="#linear-gradient-38"/><linearGradient id="linear-gradient-51" x1="637.1" y1="198.04" x2="638.9" y2="198.04" xlink:href="#linear-gradient-38"/><linearGradient id="linear-gradient-52" x1="616.57" y1="280.05" x2="616.61" y2="280.05" xlink:href="#linear-gradient-38"/><linearGradient id="linear-gradient-53" x1="602.43" y1="279.6" x2="602.61" y2="279.6" xlink:href="#linear-gradient-38"/><linearGradient id="linear-gradient-54" x1="682.54" y1="126.04" x2="682.69" y2="126.04" xlink:href="#linear-gradient-38"/><linearGradient id="linear-gradient-55" x1="596.49" y1="229.13" x2="596.82" y2="229.13" xlink:href="#linear-gradient-38"/><linearGradient id="linear-gradient-56" x1="643.56" y1="208.88" x2="645.04" y2="208.88" xlink:href="#linear-gradient-38"/><linearGradient id="linear-gradient-57" x1="614.53" y1="281.66" x2="614.58" y2="281.66" xlink:href="#linear-gradient-38"/><linearGradient id="linear-gradient-58" x1="585.6" y1="240.19" x2="586.34" y2="240.19" xlink:href="#linear-gradient-38"/><linearGradient id="linear-gradient-59" x1="589.71" y1="112.96" x2="589.85" y2="112.96" xlink:href="#linear-gradient-38"/><linearGradient id="linear-gradient-60" x1="588.37" y1="148.48" x2="589.48" y2="148.48" xlink:href="#linear-gradient-38"/><linearGradient id="linear-gradient-61" x1="660.68" y1="178.22" x2="660.85" y2="178.22" xlink:href="#linear-gradient-38"/><linearGradient id="linear-gradient-62" x1="589.29" y1="161.75" x2="590.03" y2="161.75" xlink:href="#linear-gradient-38"/><linearGradient id="linear-gradient-63" x1="604.06" y1="195.83" x2="605.35" y2="195.83" xlink:href="#linear-gradient-38"/><linearGradient id="linear-gradient-64" x1="586.97" y1="144.27" x2="588.19" y2="144.27" xlink:href="#linear-gradient-38"/><linearGradient id="linear-gradient-65" x1="646.33" y1="208" x2="647.99" y2="208" xlink:href="#linear-gradient-38"/><linearGradient id="linear-gradient-66" x1="702.12" y1="173.04" x2="792.15" y2="173.04" gradientUnits="userSpaceOnUse"><stop offset="0.55" stop-color="#c27a28"/><stop offset="1" stop-color="#c27a28"/></linearGradient><linearGradient id="linear-gradient-67" x1="702.26" y1="202.8" x2="702.28" y2="202.8" xlink:href="#linear-gradient-29"/><linearGradient id="linear-gradient-68" x1="974.33" y1="118.05" x2="975.44" y2="118.05" xlink:href="#linear-gradient-29"/><linearGradient id="linear-gradient-69" x1="973.04" y1="120.38" x2="974.52" y2="120.38" xlink:href="#linear-gradient-29"/><linearGradient id="linear-gradient-70" x1="802.54" y1="142.06" x2="1097.77" y2="142.06" gradientUnits="userSpaceOnUse"><stop offset="0" stop-color="#c27a28"/><stop offset="0.56" stop-color="#945b30"/><stop offset="1" stop-color="#c27a28"/></linearGradient></defs><title>logotipos Paula</title><path class="cls-1" d="M87.45,194.28c3.12-.23,5.32-.67,6.8-.89.55,0,2.21-2,3-2s0,1.11.74,1.11c.92,0,1.29-.67,1.47-.67l-3.5-.88C92.47,192.33,89.66,193.39,87.45,194.28Z"/><path class="cls-2" d="M93.69,199.15l.56-1.33c.18-.67.18-.89,0-.89s-.74.45-1.67,1.33C92.77,198.26,93.14,198.48,93.69,199.15Z"/><path class="cls-3" d="M87,194.44l.42-.16h0Z"/><path class="cls-4" d="M87,194.44c-.82.34-1.56.65-2.2.94Z"/><path class="cls-5" d="M57.92,279.52a1.14,1.14,0,0,0,.15.16C58.13,279.6,58.08,279.55,57.92,279.52Z"/><polygon class="cls-6" points="138.18 125.69 138.02 125.69 138.18 126.39 138.18 125.69"/><path class="cls-7" d="M70,281.41c0,.17,0,.32,0,.49A2.49,2.49,0,0,0,70,281.41Z"/><rect class="cls-8" x="41.09" y="238.97" width="0.74" height="2.43"/><polygon class="cls-9" points="99.04 209.77 99.6 209.99 100.52 208 99.78 207.77 99.04 209.77"/><polygon class="cls-10" points="58.44 242.29 58.8 244.28 59.54 244.28 58.99 242.07 58.44 242.29"/><path class="cls-11" d="M140.21,151.13a2.82,2.82,0,0,1-.93-.44v-9.52a8.72,8.72,0,0,0,.74-4,45.26,45.26,0,0,0-1.66-10l-.18-.84v1.29h-.74v-2H138l-1.87-8.63-4.43-10.85v-5.53c-2.77-4.64-3-6.86-5.36-10.4l-2.77-2.65c-1.66-3.32-2.76-6-3.69-7.52-1.84-2.22-2.77-3.76-3-4.65a1.69,1.69,0,0,1-1.29.44c-.74,0-2.77-5.09-7-6.64C104,63.73,95.72,58,83.54,51.56c.55.67.37,1.33-.19,2.22q-.27-3-8.86-6C71.73,46.7,66,45.15,57.7,42.71l-1.11,1.11H52.71a31.43,31.43,0,0,1-4.06.22,1.83,1.83,0,0,1-.37.89,3.58,3.58,0,0,0-2.76-1.55c.55,0-.74.44-4.25,1.55-.18.22-1.66,3.31-2.22,3.31-.92,0-.18-.66-.92-.66C33.89,50,31.3,52.67,30.38,55.1a7.82,7.82,0,0,1,.37,2l-2,1.32a21,21,0,0,0-1.11,5.31c2.95,7.75,5,5.53,5.91,6.2V73c0,1.55-2.4,7.3-2.4,10a7.42,7.42,0,0,0,.18,2c-.18,5.54-.18,9.74-.18,12.62a42.63,42.63,0,0,1-1.48,6c-.74,2.88-1.11,4.42-1.11,4.65,0,.88,1.85,4.64,1.85,5.75,0,.66-.55,1.77-1.85,3.1a11.21,11.21,0,0,1,1.11,5.53c0,1.1-.18,3.54-.55,7.08-.19,3.54-.37,6.42-.37,8.85.55-1.77.92-2.66.92-2.66a7.07,7.07,0,0,1,.74,3.1,3.1,3.1,0,0,1-.74,2.44c-.74-1.11-1.11-1.55-1.11-1.33l1.11,5.31c.92.22,1.48.88,1.48,2.21,0,1.11-.74,4.87-.74,6.42.18.88,2.77,3.54,2.77,5.53,0,.66-.56,1.55-1.85,2.21a66.63,66.63,0,0,1,0,15.05,4.66,4.66,0,0,0-.92-1.11c3.14,12.17,4.8,19,4.61,21,.56.89.74,1.33.74,1.11a10,10,0,0,1-.37,1.55,14.72,14.72,0,0,1,1.48,4.86,25.66,25.66,0,0,0-.92,6c0,3.32,2.21,8.63,2.21,11.95-.18,2.65.19,4.42,1.29,5.09l-.92,1.1A1.71,1.71,0,0,1,40,230.56a15.21,15.21,0,0,1-.37,3.1c.55,3.76.92,5.31.92,4.65.56-1.55.92-2.44,1.29-2.21.74,4,.93,7.08.37,9.07,2.59,10,4.8,17.92,6.46,23.89l5.72,6.64a2.7,2.7,0,0,1-.92.44c2.4.23,3.32,1.33,2.77,3.32a11.54,11.54,0,0,1,1.7.06c-.76-.83-.72-3.18.15-6.92a4.42,4.42,0,0,1,1.84,3.32c0,.89-.37,4.21-.37,5.31a14.21,14.21,0,0,0,2.4-4.42l6.65,3.1a2.07,2.07,0,0,0-.56,1.32c.19,0,.56-.44,1.3-.44.4,0,.6.24.69.62a10,10,0,0,1,1-6.15c.55.66.92.88,1.1.88V280a17.12,17.12,0,0,1,1.11-1.4l.93,1.1c-.74-3.31-1.11-5.75-1.3-7.3-.74-2.21-2.58-5.31-5.72-9.07l-1.84-2c.18-.66-.56-2.66-1.85-5.53a30.33,30.33,0,0,1-2.4-6.42c.18-.88-.18-2.21-.92-4,.18,4.42,0,6.86-.37,7.08a42.65,42.65,0,0,1-1.48-7.08,3.84,3.84,0,0,1-.92,2.21l-.74-.88c.55-4.21.74-6.64.92-6.86.19,0,1.11.44,1.3.44a11.06,11.06,0,0,0-.37-1.55c-1.11.66-1.85.66-2.22.22,0-2-.92-6-.92-6.86v-4.2c-.19,0-.19.66-1.11.66-.55,0-.74-3.54-.92-10.4v3.32a3,3,0,0,0-1.85.44c-1.66-1.54-2.4-2.87-2.4-4.42a3.29,3.29,0,0,1,.56-1.55c1.29,1.55,1.84,2.21,2,2a3.76,3.76,0,0,1,.55-1.33h-.74a42.81,42.81,0,0,1-1.84-8,1.24,1.24,0,0,1-.37.66,13,13,0,0,1-.74-4.42,4.52,4.52,0,0,1,.74-3.1s.18,1.55,1.1,1.55c.37,0,.56-.22.56-.44,0-.45.18-.67.55-.67.74,0,.92.22.74.45.18,2.87,3.32,5.75,5.72,5.75a1.92,1.92,0,0,1,1.48.66c-.55.67-.55,1.11-.19,1.33l.93-1.11a4.49,4.49,0,0,1,1.29,2.88c-1.48,0-2.22,0-2.4.22,1.85.22,4.06,1.55,6.46,3.54,2.58,2.21,5.17,3.32,7.57,3.32.74,0,1.11-1.11,1.84-1.11s.56,1.11,1.3,1.11c.18,0,.55-.44,1.1-1.11l1.11,1.11c.55-.66.92-1.11,1.11-1.11.55,0,2.4.45,3.14.45a10.07,10.07,0,0,0,5.72-1.77,16.05,16.05,0,0,1,7.38.22,3.11,3.11,0,0,1,2-2.66,8.45,8.45,0,0,1,2,.44,3,3,0,0,1,.37-1.54c.19,0,1.11,1.1,2,1.1.74,0,3.88-2.21,4.43-2.21.37,0,.56,0,.56.22s.18.22.55.22c.18,0,2-1.55,3.32-1.55L112,210a1.4,1.4,0,0,0,1.1.44c5-3.32,7.57-4.87,7.94-4.87.74,0,.55,1.11,1.29,1.11,1.29,0,.92-3.54,3.14-3.32l.92.88c-.18-.22,0-1.1.19-2.43-.74.89-1.29,1.11-1.66.66.55-1.54,1.29-2.21,1.84-2.21.92,1.11,1.48,2,1.29,2.66a12.14,12.14,0,0,1,5.73-.67q3-8.3,5-12.61a9.55,9.55,0,0,1-.37-2.43,24.72,24.72,0,0,1,1.11-6,65.55,65.55,0,0,0,1.66-7.08,1.91,1.91,0,0,1-1.29-.44C140.39,164.19,140.39,156.66,140.21,151.13Zm-108-8.19-.56-1.32A2.94,2.94,0,0,1,33,141C33,142.28,32.78,142.94,32.23,142.94Zm.55-7.74H32l.37-3.54h.74ZM35,125.46a9.71,9.71,0,0,1,1.85-2.65,2.63,2.63,0,0,0,1.11.66A6.65,6.65,0,0,1,35,125.46Zm2.22,24.12-.74-.44,1.66-2.43.56.44Zm.37-19.47a3.86,3.86,0,0,0,1.11-2,19,19,0,0,1,.36,2.65C39.05,131.44,38.5,131.22,37.58,130.11ZM70.06,272.16H71v2.44h-.93Zm-4.43-4.42h.74v1.55h-.74ZM86.68,54.88c1.1,0,1.66.67,1.66,2H86.68Zm-7-2.65h.74v1.32h-.74ZM59,46l.55.44-1.1,1.33-.56-.66Zm-7.2-.22,1.85.66-.37.89-1.48-.66Zm-8.86,68.81.74.22-.55,1.55-.74-.44Zm-.37,2,1.11,1.55-.55.45L42,117.28ZM53.64,233.22H52.9v-1.33h.74Zm1.84,1.55-.55,1.33-.74-.23.55-1.54Zm-.55-4.87-.37.66-1.48-.88.19-.89Zm-1.66-2.43-1,1.55h.41v2.65H52V229l-.37-.45,1.1-1.55Zm-2.22-4.87h.74v2h-.74Zm-.74,11.28.56.22-.56,1.55-.55-.44Zm-1.1-13.49v1.54h-.93v-1.54Zm-.56-11.51.56,5.09h-.93l-.37-5.09Zm-2.21-2.21v-7.52a25.75,25.75,0,0,1,1.66,5.75Zm7.2-8.19c-.37-.22-.56-.22-.74,0a10.72,10.72,0,0,1-1.85-3.76c1.29,2.21,2.22,3.32,3,3.1C54,198.26,53.82,198.48,53.64,198.48Zm2.77,7.08a8.9,8.9,0,0,1-.56-2.65h1.66c0,.66.37,1.55.37,2.21C57.7,204.68,57.14,204.9,56.41,205.56Zm2.4-3.32a20.34,20.34,0,0,1-2-2.43c.19,0,1.85.44,2,.44Zm2.95,6.2L61,208l.55-1.33.74.22Zm8.12,7.08-.55-.44.55-1.33.55.22ZM73,212.64l-.56-.22.56-1.33.55.22Zm-2.4-5.53c-.56,0-2.77-2.88-1.85-2.88.74,0,1.85.89,2.77.89.74,0,.55-1.11,1.29-1.11a7.66,7.66,0,0,0,3.51,1.11,10.65,10.65,0,0,0,.09,2.19C73,206.67,71.17,206.45,70.62,207.11Zm7.75,2H76.71v-.88h1.66Zm6.28,8.41-1.11-.66,1.11-1.33ZM83,209.77a2.19,2.19,0,0,1,1.29-.89,4.25,4.25,0,0,1,.55,1.55C84.09,210.43,83.17,209.77,83,209.77Zm5.53,2.43-.74-.44.74-1.33.56.22Zm3.14-2.88,1.11-3.76s.55.67,1.66,2Zm2.77.67-1.29,1.32-.37-.88,1.29-1.11Zm-2,3.76c-.74,0-.55-.44.37-1.55h2A15.81,15.81,0,0,1,92.4,213.75Zm12.74-2.66h-3.88c-2.4-.22-4.06-.22-5-.22A5.37,5.37,0,0,1,97.57,208a12.19,12.19,0,0,0-3.14-1.11c5.72-2.43,8.86-3.54,9.23-3.54.55,0,1.29.44,2,1.55-1.29,0-1.85.22-1.85.66,0,.89.93,2,.93,2.88a8.25,8.25,0,0,0,3-2.21A8.42,8.42,0,0,1,105.14,211.09Zm1.66-5.53a7.59,7.59,0,0,1,1.47-2.21l2,.88A7.26,7.26,0,0,1,106.8,205.56Zm0-8.63a5.09,5.09,0,0,1,1.29-3.32c.55,0,1.48.67,1.66.67a6.64,6.64,0,0,0-.37,1.55c-.18,0-.55-.45-1.11-1.11ZM112,204a8.73,8.73,0,0,1-2.59-1.55s2-.66,5.91-1.77a5.4,5.4,0,0,0,.37,3.32Zm-1.11-14.6,2.21.66-2.21.89A2.2,2.2,0,0,0,110.86,189.41Zm.37,4.2h.55l-.55,2.22-.56-.22Zm3.5,3.1v-2h.74v2Zm1.11,5.09v-2a50,50,0,0,1,7.2-1.55c-1.11,1.33-1.85,2-2,2-.74,0-1.11-.66-1.85-.66S117.13,201.14,115.84,201.8Zm0-5.31v-.88l2-.67v1.11Zm4.62,8.63a14.32,14.32,0,0,1,2.4-3.32c.73.89,1.1,1.33,1.1,1.55Zm4.06-9.07v-.89l.92-.66.37.88Zm1.47-2.88-.37-.66,1.67-1.33.36.89ZM127.65,150a26.64,26.64,0,0,0-.73,8.41c.18.22-.37,2.22-1.48,6l-2.22,8.18-3,3.32c-1.48,1.55-2.4,2.44-3,2.44a7.39,7.39,0,0,1-1,0c.33.51.64.7.8.7a16.2,16.2,0,0,0,2.71-.16c-4.92,3.24-11.06,6.68-12.67,10.34q-5.26-1-6.1,6.64l-2.76-1.55a2.75,2.75,0,0,1-1.11.66,31.78,31.78,0,0,0,1.11,4.21,7.65,7.65,0,0,0,1.66-2c1.84-.44,3.14-1.1,3.69-2,.55.67.92.89,1.11.89a9.38,9.38,0,0,1-1.3,1.1h1.85a4.86,4.86,0,0,0-1.11,3.54c-.18-.22-.74-.22-1.29,0a4.36,4.36,0,0,1-1.48.67c-.92,0-1.66-1.11-1.66-1.11l-.92.67a2.11,2.11,0,0,0,1.48.44,2.84,2.84,0,0,1-2.4.88.77.77,0,0,0,0,.89l.55.66a4.16,4.16,0,0,0-2.58.67c0-.89-.37-1.33-.93-1.33a2.77,2.77,0,0,0,2.4-2c-5.72,2.43-8.67,4.42-9,6-.19,0-.74-.66-1.85-2a5.36,5.36,0,0,0-1.1,2c0,.22-.37.22-1.3.22-.74,0-.37,1.11-1.1,1.11a53.75,53.75,0,0,0-5.36-1.77v-2c.56,0,2.4-.67,3.14-.67s.19,1.11.92,1.11a32.5,32.5,0,0,1,3.88-.66,9.41,9.41,0,0,0,2-1.77c.18-.23,0-.45-.74-.45s-.37,1.11-1.11,1.11-1.29-.44-2-.44-5,1.1-5.72,1.1-.18-1.1-.92-1.1c-.37,0-.55.44-.55,1.1-.93-1.1-1.3-1.77-1.48-1.77-.74,0-.74.67-1.48.67a4.48,4.48,0,0,1-3.51-1.55l-.92.88a5.05,5.05,0,0,1-.92-1.55,2.94,2.94,0,0,0-.37,1.55l-3.14-2.65a2.28,2.28,0,0,0-.57,1,48.46,48.46,0,0,0-5.7-4.51c1.29-1.11,2-1.77,2.4-1.77.73,0,1.29.44,2,.44a7.58,7.58,0,0,0,2.95-1.33l-8.12-2.21A14.13,14.13,0,0,1,50,185.87c-.19-1.11-.93-3.1-1.85-3.1-.55,0-.74.44-.74,1.11a24.32,24.32,0,0,0-2-3.54,3.31,3.31,0,0,0,.92-2,5.91,5.91,0,0,0-2.58-4.43c.92-6,1.11-9.07.92-9.73-.18,0-.37.22-.37.66A38.94,38.94,0,0,0,42.75,158c-.93-3.54-1.48-5.31-1.48-5.53,0-.89,2.21-4.87,2.21-5.75a1.9,1.9,0,0,0-.36-1.11,3.23,3.23,0,0,1-.47-.58l-.27-.08.08-.23a5.65,5.65,0,0,1-.62-2.64c.07.28.46-2.21,1.28-7.31a.93.93,0,0,0-.74-.44L40.9,137v-3.1c.37-.22.55-.66.37-1.55.92-1.32,1.48-1.77,1.48-1.55,0,1.11,0,1.78-.19,2a.93.93,0,0,0,.74.44c.92-.89,1.11-2.66.92-5.53s-.18-4.43.19-5.09c-.56-.67-1.11-1.11-1.29-.89,0-.71,1.42-5.26,2.08-8.4H43.67v-1.11h1.66v.44c.09-.51.16-1,.19-1.33a2.28,2.28,0,0,1-1.11.45c.55-6.2.92-11.07,1.11-14.83a161,161,0,0,0,4.06-26.11l1.1-.66v-.44c-.92-1.55-1.29-2.88-1.1-3.54a7.51,7.51,0,0,0,2.58-3.54c1.48-.22,6.46-2.88,7-2.88,7,1.33,11.45,2,13.11,2,.92,0,.18,1.11.92,1.11.37,0,.56,0,.56-.22s.18-.22.73-.22,2,2.21,2.59,2.21c.37,0,.55,0,.55-.22s.19-.45.56-.45c.55,0,2.4.89,5.53,2.44a36.16,36.16,0,0,0,5.36,2.43c.92,0,.18-.44.92-.44,7.2,4.65,10.89,7.08,11.07,7.08a1,1,0,0,1,.74.66,2.3,2.3,0,0,0,1.3.45,1.5,1.5,0,0,0,1.1-.67c.19.22.19.89.19,2.44,1.47.66,5.54,5.31,6.27,5.31.56,0,.74-.45.74-1.11a5,5,0,0,0,.92,2c.37.44.37.67,0,.89,2,1.1,3.33,2.21,3.88,3.76A155.57,155.57,0,0,1,123,106.44c1.48,5.53,2.58,10,3.51,12.83.55,10,.74,17.92.74,23.45a11.64,11.64,0,0,0,1.66,2.22A12.42,12.42,0,0,0,127.65,150ZM104.4,193.61l-1.66.67v-.67l1.47-.66Zm27.13-69.69h-.74l.19-2h.92Zm3.88,4.86h-.74v-2h.74Z"/><path class="cls-12" d="M72.09,280.13V280Q72,280.13,72.09,280.13Z"/><rect class="cls-13" x="101.81" y="207.55" width="1.66" height="0.89"/><polygon class="cls-14" points="44.41 147.37 43.85 149.36 44.41 149.58 44.96 147.37 44.41 147.37"/><path class="cls-15" d="M67.11,197.82a4.1,4.1,0,0,1,.56-2.44H65.82C65.63,196.27,66.56,197.82,67.11,197.82Z"/><polygon class="cls-16" points="59.54 195.83 59.54 196.49 60.84 195.83 60.65 195.16 59.54 195.83"/><rect class="cls-17" x="44.78" y="159.98" width="0.74" height="3.54"/><path class="cls-18" d="M85.8,199.83l-.41.2C85.39,200.37,85.53,200.3,85.8,199.83Z"/><path class="cls-19" d="M74.86,194.72c-4.24.22-6.27,1.33-5.72,3.76,1.66-1.1,2.59-2,2.77-2.65,1.11.66,1.66,1.32,1.66,2.21l2.22-1.33C75.23,196.71,74.86,196.05,74.86,194.72Z"/><rect class="cls-20" x="83.54" y="200.03" width="1.29" height="0.89"/><path class="cls-21" d="M76.16,195.16c0,1.11,1.1,1.77,3.5,1.77a9.18,9.18,0,0,0,3.88-1.32C78.56,193.84,76.16,193.61,76.16,195.16Z"/><polygon class="cls-22" points="51.98 229.02 52.16 229.24 52.3 229.01 51.98 229.01 51.98 229.02"/><polygon class="cls-23" points="91.11 197.6 91.66 198.92 92.22 198.92 91.66 197.38 91.11 197.6"/><polygon class="cls-24" points="92.95 201.14 92.95 202.02 94.8 200.69 94.61 200.03 92.95 201.14"/><path class="cls-25" d="M85.8,199.83a7.37,7.37,0,0,1,2.72-.91l-1.66-1.54A20.58,20.58,0,0,1,85.8,199.83Z"/><path class="cls-26" d="M116.33,178.31l-.12-.18C116.12,178.23,116.17,178.28,116.33,178.31Z"/><path class="cls-27" d="M43.67,143.83l-.74-.44-.47,1.32a3.21,3.21,0,0,0,.19.31l.47.14Z"/><path class="cls-28" d="M45.33,112.63c0,.21-.08.43-.13.67h.13Z"/><polygon class="cls-29" points="382.56 131.88 382.19 135.86 382.75 135.86 383.3 131.88 382.56 131.88"/><polygon class="cls-30" points="376.29 166.84 376.84 165.51 376.29 165.29 375.73 166.62 376.29 166.84"/><path class="cls-31" d="M376.84,153.57c2-3.77,3.32-5.76,3.69-5.54l-.55-2.87C378,145.82,377.58,150.25,376.84,153.57Z"/><polygon class="cls-32" points="379.43 47.8 379.06 47.14 377.95 48.02 378.32 48.69 379.43 47.8"/><path class="cls-33" d="M379.79,143.61a5,5,0,0,0,.19,1.55C380.16,144.71,380,144.27,379.79,143.61Z"/><path class="cls-34" d="M386.07,47.36v.88C386.25,47.58,386.25,47.36,386.07,47.36Z"/><rect class="cls-35" x="386.25" y="129.45" width="0.74" height="1.77"/><rect class="cls-36" x="384.22" y="127.9" width="0.74" height="1.99"/><path class="cls-37" d="M503.65,180.56c-.56,3.32-3.88,10-9.79,19.47-7.38,12.17-13.84,18.14-19.38,18.14-2,0-4.24-2.21-6.27-6.63s-3.14-8.19-3.14-11.29A112,112,0,0,1,468,174.59l4.8-19.25,2.77-17.48,1.66-5.76a17,17,0,0,0,1.29-6c0-3.32-.73-5.09-2-5.75a20.27,20.27,0,0,0-3.74,1.72c-3.66-3.28-5.86-4.82-6.78-5l-1.29-1.55c-.92-.22-1.85-1.77-2.77-1.77s-1.84,1.77-2.4,1.77c-.74,0-.37-.67-1.11-.67-1.29,0-4.61,2.66-9.78,7.75-5,5.09-8.3,8.85-9.6,11.73L435.72,141a167.78,167.78,0,0,1-9.23,15.93l-2.21,5.31c-2.22,2.66-5.36,5.54-6.09,8.86a62.51,62.51,0,0,0-.74,8.85l-.64,1.75a77.56,77.56,0,0,1-21.7,21.26c-10.15,6.63-15.87,10-17,10-1.66,0-2.95-2.87-4.06-8.4A63.33,63.33,0,0,1,373,193.61l-.37-9.29-.18-2a10.16,10.16,0,0,1,1.11-3.1,21.44,21.44,0,0,0,1.1-3.76,6,6,0,0,1-1.47,2.43l-.56-.88v-2.66c1.67-.22,2-1.77,2-3.76-.18-1.77-.36-2.65-.36-2.87,0-2,2.21-4.87,3.69-6.86l.74.88a7.1,7.1,0,0,1,.55-2.87L378,160.2a1.17,1.17,0,0,1-.37-.66c.55-1.55,2-3.54,4.06-6a6.85,6.85,0,0,1,.55-2.66c-.92-1.11-1.29-1.55-1.29-1.33l-3.14,7.08-2.58-2.87v-4.43c.18.22.55.22,1.11.22q-1.67-5.64-1.67-6a9.77,9.77,0,0,1,.19-2.88c.92-6.86,1.48-10.62,1.48-10.84a4.12,4.12,0,0,0-1.11-2.43c0,1.1-.37,1.32-.92.44a10.7,10.7,0,0,1,.36-2.21,1,1,0,0,1,1.11,1.1c2.77-15,4.62-26.33,5.91-34.07a88,88,0,0,0,2.4-8.85c.92-4.43,2.21-6.64,3.51-6.64.18,0,.55.22,1.1.89q-.27,1.65,1.66,4.64c0,.89-.55,1.55-1.66,2.21a24.23,24.23,0,0,1,2.59,8.19c-.19,0-.74,3.1-2,9.07-.19.44,0,2.21.55,5.09a9.26,9.26,0,0,0-1.11,2.21,1.55,1.55,0,0,1,1.66,1.77v.89h-.18c-.55-.22-.74-.22-.92-.44a4.09,4.09,0,0,1-.56,2,24.54,24.54,0,0,0-.37,2.43l-.73-.44a3.64,3.64,0,0,1,.37,1.33c0,.88-1.11,3.09-1.3,4.2.19,2.43-1.29,4.43-1.29,5.09a3.41,3.41,0,0,0,.55,1.55l1.11-1.11.56.89a12.26,12.26,0,0,1,2.21-4,1.92,1.92,0,0,1,.19,1.11c0,1.55-1.67,2.66-1.48,6.2a55,55,0,0,1-4.43,4.2c-2,6.2-3,10.4-3,12.39a4,4,0,0,0,.55,2,25.92,25.92,0,0,1,2.58-6.64l.93,1.77a43.76,43.76,0,0,0,2.58-12.39,1.38,1.38,0,0,1,1.29.89l-1.1,2.65,2.58-5.75a.61.61,0,0,1,.55-.22V129c5.36-13,8.49-24.56,9.05-34.73a9.48,9.48,0,0,0,1.84-2.66l1.11-13c.19-.67,1.29-1.77,1.29-2.66,0-1.55-1.1-5.31-3.5-11.72-2.22-6.42-4.06-10.4-5.36-12.4-.37,1.11-.92,1.55-1.47,1.55A32.9,32.9,0,0,0,390,49.79c0,1.11-.37,1.55-1.11,1.55a3.61,3.61,0,0,1-.37-2,11.78,11.78,0,0,1-1.29,2.43c-.56-.66-.93-.88-1.11-.88V48.24l-.55.67c-1.3-1.55-2.4-2.21-3.7-2.21-5,0-11.07,26.1-18.45,78.32v2.21c.73,0,1.1.23,1.1.67a2.33,2.33,0,0,1-1.66.44v2.21c0,.45-.37,5.31-1.11,14.61-.55,9.29-.92,14.16-.92,14.6a14.61,14.61,0,0,0,.92,2.88,1.27,1.27,0,0,0,.74-.45c-1.1,8.63-1.66,13.94-1.66,16.16.11,3.42.15,6.31.17,8.76a54.84,54.84,0,0,1-12.17,13.36c-7.56,5.53-13.66,12.84-22.52,11.29-2.76-.67-5.72-3.54-8.67-9.07l-.37-3.54a135.82,135.82,0,0,1-1.29-14.83c0-9.73,1.84-22.57,5.72-38.5a25.08,25.08,0,0,1,2.21-3.76,20.39,20.39,0,0,0,.93-5.53c0-1.55-2-2.88-6.09-4.43q-5.26-2-7.2-2h-1.85l-11.44,34.08c-.93,0-1.48,5.31-3.69,6.41-3.14,6.86-5.54,11.73-7,14.61a96.48,96.48,0,0,0-7.38,8.18c-4.25,6.42-7.75,9.52-10.15,9.52-1.3,0-.74-.67-1.67-3.54a10.3,10.3,0,0,1-.73-2.88l.37-12c2.4-11.95,3.87-19.47,4.79-22.57a62.65,62.65,0,0,1,3.14-5.75,28.21,28.21,0,0,0,2.4-4.65c0-3.32-.92-5.09-2.95-5.75-5-1.11-8.12-2-9.6-2.88-3.88,2.44-7.38,8.63-10.34,18.59-2.58,8.63-3.87,16.37-3.87,22.79,0,.07,0,.14,0,.21A122.16,122.16,0,0,1,243,200c-7.39,12.17-13.85,18.14-19.38,18.14-2,0-4.25-2.21-6.28-6.63s-3.14-8.19-3.14-11.29a112,112,0,0,1,3-25.66L222,155.34l2.77-17.48,1.66-5.76a17.1,17.1,0,0,0,1.3-6c0-3.32-.74-5.09-2-5.75a19.48,19.48,0,0,0-3.74,1.72c-3.66-3.28-5.87-4.82-6.78-5l-1.3-1.55c-.92-.22-1.84-1.77-2.77-1.77s-1.84,1.77-2.4,1.77c-.73,0-.36-.67-1.1-.67-1.3,0-4.62,2.66-9.79,7.75-5,5.09-8.3,8.85-9.59,11.73L184.87,141a167.78,167.78,0,0,1-9.23,15.93l-2.21,5.31c-2.22,2.66-5.35,5.54-6.09,8.86a62.51,62.51,0,0,0-.74,8.85L164.75,185a27.57,27.57,0,0,0-1.66,6.64c0,1.33.93,4.21,2.77,8.85a50.39,50.39,0,0,0,3.88,7.53c2.21,1.1,2.58.66,4.61,3.09,1.11,1.11,1.85,1.55,2.22,1.55.74,0,4.43-1.77,5.72-1.77-.19-1.55.74-2.65,2.77-3.1,2.77-.88,4.06-1.32,4.24-1.54,6.46-6.2,11.08-11.07,14-14.39q.28,22.91,8.86,31.2c3.14,2.88,8.31,5.09,15.88,6.2-.93-.22.18-.22,3.32-.22,5.17,0,10.52-4.43,15.87-13.06,4.3-6.86,6.67-12.74,7.24-17.49a34.9,34.9,0,0,0,4,8.42c.74,1.11,2.77,2.65,6.09,4.87s5.54,3.32,6.83,3.32c3.88,0,8.68-4.21,14.22-12.84,5.72-8.63,8.86-13.05,9.59-13.05a.92.92,0,0,1,.74.44c1.66,7.3,3,13.06,4.06,17,2.77,4.64,5,8.41,6.65,11.5.18,0,.92-1.1,1.66-1.1.37,0,.55.44.55,1.1-.18,1.11-.18,1.55,0,1.77,6.09,5.53,11.26,8.41,15.69,8.41.74,0,2.4.89,3,.89,3.87-.67,7.75-1.33,11.81-2.22.18-2.65,2-5.31,5.91-8.18,3.87-2.66,6.09-4.87,7-6.42q5.91-7.74,9.28-12.21c.1.92.21,1.75.32,2.48.92,6.41,2.95,11.06,6.27,13.71,5.91,4.65,10.16,7.08,12.56,7.08h2.95a13.61,13.61,0,0,0,3.32-1.32,16.62,16.62,0,0,1,3.51-1.33c.37,0,.55,0,.37.22l.37.22c.74,0,3.5-3.32,4.06-3.32.37,0,.55,0,.55.22s.19.22.37.22c-.18,0,3.14-2.21,9.78-6.63a35.83,35.83,0,0,1,4.8-6c-.37-1.77.56-4.2,3-7.08.48-.69,1-1.38,1.49-2.07.4,1.12.88,2.38,1.46,3.84a51.94,51.94,0,0,0,3.87,7.53c2.22,1.1,2.59.66,4.62,3.09,1.11,1.11,1.85,1.55,2.21,1.55.74,0,4.43-1.77,5.73-1.77-.19-1.55.74-2.65,2.77-3.1,2.76-.88,4.06-1.32,4.24-1.54,6.46-6.2,11.08-11.07,14-14.39q.27,22.91,8.86,31.2c3.14,2.88,8.31,5.09,15.87,6.2-.92-.22.19-.22,3.33-.22,5.16,0,10.52-4.43,15.87-13.06,5-8,7.38-14.6,7.38-19.69,0,.88.19-.44.37-3.76a37,37,0,0,0-.18-6.64A10.92,10.92,0,0,0,503.65,180.56Zm-118.5-37.62-1.11-1.1a12.41,12.41,0,0,0,.92-5.31,1.29,1.29,0,0,1,.92.44l.93-.88Zm4.24-21.68-.55-.22.55-1.33.56.22Zm1.11-17h.74V106h-.74Zm.74,21.69-.74-.22.55-1.77h.74Zm2-11.29c.18.22.92-1.55,2-5.53-.56,3.76-1.11,6.42-2,8.19Zm-.93-2.87h.56l-.56,1.77Zm-.92,8.63h.74v2.21h-.74Zm-13.66-14.61.74-.66a5.21,5.21,0,0,1-1.11,3.54c0-.22-.55-2.21-.55-2.44C377,106.21,377.21,106,377.76,105.77Zm-2.21,52.66v-.66l1.11-.66.18.66-1.11.66c0,.22.37.45,1.11,1.11a12.76,12.76,0,0,0-2,3.32,1.43,1.43,0,0,1-.55-1.33A8.54,8.54,0,0,1,375.55,158.43ZM203,168.61c0,.22-1.47,3.76-4.24,10.62a63.89,63.89,0,0,1-5,11.07c-.74,1.1-3.13,3.09-7.2,5.75-4.06,2.43-6.64,3.76-7.93,3.54H176v-2.88c0-4.2,2.4-11.73,7-22.12,3.69-8.19,6.27-13.5,7.93-15.71,9.79-13.72,16.8-21,21.23-21.69C208.5,150.69,205.36,161.31,203,168.61Zm128.1,59.3.56-.44C331.25,228.13,331.06,228.13,331.06,227.91Zm42.64-83.42c0,2.22,0,3.32-.18,3.54v-1.32l-1.29,1.77Zm-8.12-13.72-1.11-1.1,1.11-1.33C366.32,128.34,366.32,129.23,365.58,130.77Zm1.48,3.1-.56-1.32.56-.23Zm1.1-28.76-1.1-1.55c.55.22.92.22,1.1,0Zm4.25,47.57h.74l-.56,2-.55-.22Zm81.4,15.93c0,.22-1.48,3.76-4.25,10.62a63.24,63.24,0,0,1-5,11.07c-.74,1.1-3.14,3.09-7.2,5.75-4.06,2.43-6.64,3.76-7.93,3.54h-2.59v-2.88c0-4.2,2.4-11.73,7-22.12,3.69-8.19,6.27-13.5,7.93-15.71,9.79-13.72,16.8-21,21.23-21.69C459.35,150.69,456.21,161.31,453.81,168.61Z"/><polygon class="cls-38" points="602.95 242.29 603.32 244.28 604.06 244.28 603.51 242.07 602.95 242.29"/><path class="cls-39" d="M630.31,199.83l-.41.2C629.9,200.37,630.05,200.3,630.31,199.83Z"/><rect class="cls-40" x="628.05" y="200.03" width="1.29" height="0.89"/><path class="cls-41" d="M630.31,199.83a7.35,7.35,0,0,1,2.73-.91l-1.66-1.54A20.17,20.17,0,0,1,630.31,199.83Z"/><path class="cls-42" d="M619.38,194.72c-4.25.22-6.28,1.33-5.72,3.76,1.66-1.1,2.58-2,2.77-2.65,1.1.66,1.66,1.32,1.66,2.21l2.21-1.33C619.75,196.71,619.38,196.05,619.38,194.72Z"/><polygon class="cls-43" points="635.62 197.6 636.18 198.92 636.73 198.92 636.18 197.38 635.62 197.6"/><path class="cls-44" d="M620.67,195.16c0,1.11,1.11,1.77,3.51,1.77a9.2,9.2,0,0,0,3.87-1.32C623.07,193.84,620.67,193.61,620.67,195.16Z"/><path class="cls-45" d="M631.55,194.44c-.82.34-1.56.65-2.2.94Z"/><path class="cls-46" d="M631.55,194.44l.41-.16h0Z"/><polygon class="cls-47" points="637.47 201.14 637.47 202.02 639.32 200.69 639.13 200.03 637.47 201.14"/><path class="cls-48" d="M684.72,151.13a2.89,2.89,0,0,1-.92-.44v-9.52a8.85,8.85,0,0,0,.74-4,45.88,45.88,0,0,0-1.66-10l-.19-.84v1.29H682v-2h.59l-1.88-8.63-4.43-10.85v-5.53c-2.77-4.64-3-6.86-5.35-10.4l-2.77-2.65c-1.66-3.32-2.77-6-3.69-7.52-1.85-2.22-2.77-3.76-3-4.65a1.67,1.67,0,0,1-1.29.44c-.74,0-2.77-5.09-7-6.64-4.62-5.53-12.92-11.28-25.11-17.7.56.67.37,1.33-.18,2.22q-.27-3-8.86-6c-2.77-1.1-8.49-2.65-16.8-5.09l-1.1,1.11h-3.88a31.59,31.59,0,0,1-4.06.22,1.93,1.93,0,0,1-.37.89A3.6,3.6,0,0,0,590,43.38c.55,0-.74.44-4.24,1.55-.19.22-1.67,3.31-2.22,3.31-.92,0-.18-.66-.92-.66-4.25,2.43-6.83,5.09-7.76,7.52a7.41,7.41,0,0,1,.37,2l-2,1.32a21.31,21.31,0,0,0-1.1,5.31c3,7.75,5,5.53,5.9,6.2V73c0,1.55-2.4,7.3-2.4,10a7,7,0,0,0,.19,2c-.19,5.54-.19,9.74-.19,12.62a40.75,40.75,0,0,1-1.47,6c-.74,2.88-1.11,4.42-1.11,4.65,0,.88,1.84,4.64,1.84,5.75,0,.66-.55,1.77-1.84,3.1a11.21,11.21,0,0,1,1.11,5.53c0,1.1-.19,3.54-.56,7.08-.18,3.54-.37,6.42-.37,8.85.56-1.77.93-2.66.93-2.66a7,7,0,0,1,.73,3.1,3.1,3.1,0,0,1-.73,2.44c-.74-1.11-1.11-1.55-1.11-1.33l1.11,5.31c.92.22,1.47.88,1.47,2.21,0,1.11-.74,4.87-.74,6.42.19.88,2.77,3.54,2.77,5.53,0,.66-.55,1.55-1.84,2.21a67.83,67.83,0,0,1,0,15.05,4.4,4.4,0,0,0-.93-1.11c3.14,12.17,4.8,19,4.62,21,.55.89.74,1.33.74,1.11a11.39,11.39,0,0,1-.37,1.55,15,15,0,0,1,1.48,4.86,25.2,25.2,0,0,0-.93,6c0,3.32,2.22,8.63,2.22,11.95-.19,2.65.18,4.42,1.29,5.09l-.92,1.1a1.71,1.71,0,0,1,1.47,2.21,14.12,14.12,0,0,1-.37,3.1c.56,3.76.93,5.31.93,4.65.55-1.55.92-2.44,1.29-2.21.74,4,.92,7.08.37,9.07,2.58,10,4.8,17.92,6.46,23.89l5.72,6.64a2.89,2.89,0,0,1-.92.44c2.4.23,3.32,1.33,2.77,3.32a11.3,11.3,0,0,1,1.69.06c-.76-.83-.71-3.18.15-6.92a4.44,4.44,0,0,1,1.85,3.32c0,.89-.37,4.21-.37,5.31a14.42,14.42,0,0,0,2.4-4.42l6.64,3.1a2,2,0,0,0-.55,1.32c.18,0,.55-.44,1.29-.44a.66.66,0,0,1,.69.62,10,10,0,0,1,1-6.15c.56.66.93.88,1.11.88V280a15,15,0,0,1,1.11-1.4l.92,1.1a72.2,72.2,0,0,1-1.29-7.3c-.74-2.21-2.59-5.31-5.72-9.07l-1.85-2c.19-.66-.55-2.66-1.84-5.53a29.77,29.77,0,0,1-2.4-6.42c.18-.88-.19-2.21-.93-4,.19,4.42,0,6.86-.37,7.08a41.37,41.37,0,0,1-1.47-7.08,3.79,3.79,0,0,1-.93,2.21l-.73-.88c.55-4.21.73-6.64.92-6.86.18,0,1.11.44,1.29.44a9.75,9.75,0,0,0-.37-1.55c-1.11.66-1.84.66-2.21.22,0-2-.93-6-.93-6.86v-4.2c-.18,0-.18.66-1.1.66-.56,0-.74-3.54-.93-10.4v3.32a3,3,0,0,0-1.84.44c-1.66-1.54-2.4-2.87-2.4-4.42a3.26,3.26,0,0,1,.55-1.55c1.29,1.55,1.85,2.21,2,2a3.86,3.86,0,0,1,.56-1.33h-.74a43.26,43.26,0,0,1-1.85-8,1.17,1.17,0,0,1-.37.66,13.29,13.29,0,0,1-.74-4.42,4.58,4.58,0,0,1,.74-3.1s.19,1.55,1.11,1.55c.37,0,.55-.22.55-.44,0-.45.19-.67.56-.67.74,0,.92.22.74.45.18,2.87,3.32,5.75,5.72,5.75a1.9,1.9,0,0,1,1.47.66c-.55.67-.55,1.11-.18,1.33l.92-1.11a4.46,4.46,0,0,1,1.3,2.88c-1.48,0-2.22,0-2.4.22,1.84.22,4.06,1.55,6.46,3.54,2.58,2.21,5.16,3.32,7.56,3.32.74,0,1.11-1.11,1.85-1.11s.55,1.11,1.29,1.11c.19,0,.56-.44,1.11-1.11l1.11,1.11c.55-.66.92-1.11,1.1-1.11.56,0,2.4.45,3.14.45a10,10,0,0,0,5.72-1.77,16.1,16.1,0,0,1,7.39.22,3.11,3.11,0,0,1,2-2.66,8.72,8.72,0,0,1,2,.44,2.87,2.87,0,0,1,.37-1.54c.18,0,1.11,1.1,2,1.1.74,0,3.87-2.21,4.43-2.21.37,0,.55,0,.55.22s.19.22.56.22c.18,0,2-1.55,3.32-1.55l.92-1.1a1.44,1.44,0,0,0,1.11.44c5-3.32,7.57-4.87,7.94-4.87.73,0,.55,1.11,1.29,1.11,1.29,0,.92-3.54,3.14-3.32l.92.88c-.19-.22,0-1.1.18-2.43-.74.89-1.29,1.11-1.66.66.56-1.54,1.29-2.21,1.85-2.21.92,1.11,1.47,2,1.29,2.66a12.09,12.09,0,0,1,5.72-.67q3-8.3,5-12.61a9.13,9.13,0,0,1-.37-2.43,25.1,25.1,0,0,1,1.1-6,60.92,60.92,0,0,0,1.66-7.08,1.93,1.93,0,0,1-1.29-.44C684.91,164.19,684.91,156.66,684.72,151.13Zm-108-8.19-.55-1.32a2.85,2.85,0,0,1,1.29-.67C577.48,142.28,577.29,142.94,576.74,142.94Zm.55-7.74h-.73l.37-3.54h.73Zm2.22-9.74a9.44,9.44,0,0,1,1.85-2.65,2.68,2.68,0,0,0,1.1.66A6.63,6.63,0,0,1,579.51,125.46Zm2.21,24.12-.73-.44,1.66-2.43.55.44Zm.37-19.47a3.86,3.86,0,0,0,1.11-2,18.47,18.47,0,0,1,.37,2.65C583.57,131.44,583,131.22,582.09,130.11Zm32.49,142.05h.92v2.44h-.92Zm-4.43-4.42h.74v1.55h-.74Zm21-212.86c1.11,0,1.66.67,1.66,2h-1.66Zm-7-2.65h.74v1.32h-.74ZM603.51,46l.55.44L603,47.8l-.55-.66Zm-7.2-.22,1.84.66-.37.89-1.47-.66Zm-8.86,68.81.74.22-.56,1.55-.74-.44Zm-.37,2,1.11,1.55-.56.45-1.11-1.33Zm11.07,116.61h-.74v-1.33h.74Zm1.85,1.55-.56,1.33-.73-.23.55-1.54Zm-.56-4.87-.36.66-1.48-.88.18-.89Zm-1.66-2.43-1,1.55h.41v2.65h-.74V229l-.37-.45,1.11-1.55Zm-2.21-4.87h.74v2h-.74Zm-.74,11.28.55.22-.55,1.55-.55-.44Zm-1.11-13.49v1.54h-.92v-1.54Zm-.55-11.51.55,5.09h-.92l-.37-5.09ZM591,206.67v-7.52a24.71,24.71,0,0,1,1.66,5.75Zm7.2-8.19c-.37-.22-.55-.22-.74,0a10.65,10.65,0,0,1-1.84-3.76c1.29,2.21,2.21,3.32,2.95,3.1C598.52,198.26,598.34,198.48,598.15,198.48Zm2.77,7.08a8.83,8.83,0,0,1-.55-2.65H602c0,.66.37,1.55.37,2.21C602.21,204.68,601.66,204.9,600.92,205.56Zm2.4-3.32a19.73,19.73,0,0,1-2-2.43c.18,0,1.85.44,2,.44Zm2.95,6.2-.73-.44.55-1.33.74.22Zm8.13,7.08-.56-.44.56-1.33.55.22Zm3.13-2.88-.55-.22.55-1.33.56.22Zm-2.4-5.53c-.55,0-2.76-2.88-1.84-2.88.74,0,1.84.89,2.77.89.74,0,.55-1.11,1.29-1.11a7.62,7.62,0,0,0,3.51,1.11,10.65,10.65,0,0,0,.09,2.19C617.5,206.67,615.68,206.45,615.13,207.11Zm7.76,2h-1.66v-.88h1.66Zm6.27,8.41-1.11-.66,1.11-1.33Zm-1.66-7.74a2.22,2.22,0,0,1,1.29-.89,4.33,4.33,0,0,1,.56,1.55C628.61,210.43,627.69,209.77,627.5,209.77ZM633,212.2l-.74-.44.74-1.33.55.22Zm3.14-2.88,1.1-3.76,1.67,2ZM639,210l-1.3,1.32-.37-.88,1.3-1.11Zm-2,3.76c-.73,0-.55-.44.37-1.55h2A15.33,15.33,0,0,1,636.91,213.75Zm12.74-2.66h-3.87c-2.4-.22-4.07-.22-5-.22a5.52,5.52,0,0,1,1.29-2.87,12.14,12.14,0,0,0-3.13-1.11c5.72-2.43,8.86-3.54,9.22-3.54.56,0,1.3.44,2,1.55-1.29,0-1.84.22-1.84.66,0,.89.92,2,.92,2.88a8.3,8.3,0,0,0,3-2.21A8.43,8.43,0,0,1,649.65,211.09Zm1.66-5.53a7.73,7.73,0,0,1,1.48-2.21l2,.88A7.29,7.29,0,0,1,651.31,205.56Zm0-8.63a5.09,5.09,0,0,1,1.29-3.32c.56,0,1.48.67,1.67.67a6.16,6.16,0,0,0-.37,1.55c-.19,0-.56-.45-1.11-1.11Zm5.17,7.08a8.75,8.75,0,0,1-2.58-1.55s2-.66,5.9-1.77a5.55,5.55,0,0,0,.37,3.32Zm-1.11-14.6,2.22.66-2.22.89A2.09,2.09,0,0,0,655.37,189.41Zm.37,4.2h.56l-.56,2.22-.55-.22Zm3.51,3.1v-2H660v2Zm1.11,5.09v-2a49.42,49.42,0,0,1,7.2-1.55c-1.11,1.33-1.85,2-2,2-.74,0-1.11-.66-1.85-.66S661.65,201.14,660.36,201.8Zm0-5.31v-.88l2-.67v1.11Zm4.61,8.63a14.7,14.7,0,0,1,2.4-3.32c.74.89,1.11,1.33,1.11,1.55Zm4.06-9.07v-.89l.93-.66.36.88Zm1.48-2.88-.37-.66,1.66-1.33.37.89ZM672.17,150a26.66,26.66,0,0,0-.74,8.41c.19.22-.37,2.22-1.47,6l-2.22,8.18-3,3.32c-1.48,1.55-2.4,2.44-3,2.44a7.21,7.21,0,0,1-1,0c.33.51.64.7.8.7a16,16,0,0,0,2.7-.16c-4.91,3.24-11.05,6.68-12.67,10.34q-5.26-1-6.09,6.64l-2.77-1.55a2.63,2.63,0,0,1-1.11.66,31.78,31.78,0,0,0,1.11,4.21,7.24,7.24,0,0,0,1.66-2c1.85-.44,3.14-1.1,3.69-2,.56.67.93.89,1.11.89a9.5,9.5,0,0,1-1.29,1.1h1.85a4.86,4.86,0,0,0-1.11,3.54c-.19-.22-.74-.22-1.29,0a4.45,4.45,0,0,1-1.48.67c-.92,0-1.66-1.11-1.66-1.11l-.92.67a2.08,2.08,0,0,0,1.47.44,2.81,2.81,0,0,1-2.4.88.8.8,0,0,0,0,.89l.56.66a4.21,4.21,0,0,0-2.59.67c0-.89-.37-1.33-.92-1.33a2.78,2.78,0,0,0,2.4-2c-5.72,2.43-8.68,4.42-9,6-.18,0-.73-.66-1.84-2a5.55,5.55,0,0,0-1.11,2c0,.22-.37.22-1.29.22-.74,0-.37,1.11-1.11,1.11a52.86,52.86,0,0,0-5.35-1.77v-2c.55,0,2.4-.67,3.14-.67s.18,1.11.92,1.11a32.13,32.13,0,0,1,3.88-.66,9.41,9.41,0,0,0,2-1.77c.18-.23,0-.45-.74-.45s-.37,1.11-1.11,1.11-1.29-.44-2-.44-5,1.1-5.72,1.1-.19-1.1-.92-1.1c-.37,0-.56.44-.56,1.1-.92-1.1-1.29-1.77-1.48-1.77-.73,0-.73.67-1.47.67a4.46,4.46,0,0,1-3.51-1.55l-.92.88a5.12,5.12,0,0,1-.93-1.55,3.05,3.05,0,0,0-.36,1.55l-3.14-2.65a2.28,2.28,0,0,0-.57,1,48.44,48.44,0,0,0-5.71-4.51c1.29-1.11,2-1.77,2.4-1.77.74,0,1.29.44,2,.44a7.54,7.54,0,0,0,3-1.33l-8.13-2.21a14.17,14.17,0,0,1-7.75-5.31c-.18-1.11-.92-3.1-1.85-3.1-.55,0-.73.44-.73,1.11a25.45,25.45,0,0,0-2-3.54,3.31,3.31,0,0,0,.92-2,5.91,5.91,0,0,0-2.58-4.43c.92-6,1.1-9.07.92-9.73-.19,0-.37.22-.37.66a38.35,38.35,0,0,0-1.48-6.86c-.92-3.54-1.47-5.31-1.47-5.53,0-.89,2.21-4.87,2.21-5.75a1.83,1.83,0,0,0-.37-1.11,3.66,3.66,0,0,1-.46-.58l-.28-.08.08-.23a5.91,5.91,0,0,1-.62-2.64c.08.28.46-2.21,1.28-7.31a.92.92,0,0,0-.74-.44L585.42,137v-3.1c.37-.22.55-.66.37-1.55.92-1.32,1.47-1.77,1.47-1.55a4.7,4.7,0,0,1-.18,2,.92.92,0,0,0,.74.44c.92-.89,1.1-2.66.92-5.53s-.19-4.43.18-5.09c-.55-.67-1.1-1.11-1.29-.89,0-.71,1.43-5.26,2.08-8.4h-1.52v-1.11h1.66v.44a11.8,11.8,0,0,0,.18-1.33,2.28,2.28,0,0,1-1.11.45c.56-6.2.93-11.07,1.11-14.83a161,161,0,0,0,4.06-26.11l1.11-.66v-.44c-.92-1.55-1.29-2.88-1.11-3.54a7.53,7.53,0,0,0,2.59-3.54c1.47-.22,6.46-2.88,7-2.88,7,1.33,11.44,2,13.11,2,.92,0,.18,1.11.92,1.11.37,0,.55,0,.55-.22s.19-.22.74-.22,2,2.21,2.59,2.21c.36,0,.55,0,.55-.22s.18-.45.55-.45c.56,0,2.4.89,5.54,2.44a36.32,36.32,0,0,0,5.35,2.43c.93,0,.19-.44.93-.44,7.19,4.65,10.89,7.08,11.07,7.08a1,1,0,0,1,.74.66,2.3,2.3,0,0,0,1.29.45,1.5,1.5,0,0,0,1.11-.67c.18.22.18.89.18,2.44,1.48.66,5.54,5.31,6.28,5.31.55,0,.74-.45.74-1.11a4.82,4.82,0,0,0,.92,2c.37.44.37.67,0,.89,2,1.1,3.32,2.21,3.88,3.76a157.58,157.58,0,0,1,6.83,17.26c1.47,5.53,2.58,10,3.5,12.83.56,10,.74,17.92.74,23.45a12.64,12.64,0,0,0,1.66,2.22A12.54,12.54,0,0,0,672.17,150Zm-23.26,43.59-1.66.67v-.67l1.48-.66Zm27.14-69.69h-.74l.18-2h.93Zm3.87,4.86h-.73v-2h.73Z"/><path class="cls-49" d="M632,194.28c3.12-.23,5.33-.67,6.8-.89.55,0,2.22-2,3-2s0,1.11.74,1.11c.93,0,1.3-.67,1.48-.67l-3.51-.88C637,192.33,634.17,193.39,632,194.28Z"/><path class="cls-50" d="M611.63,197.82a4.1,4.1,0,0,1,.55-2.44h-1.84C610.15,196.27,611.07,197.82,611.63,197.82Z"/><path class="cls-51" d="M638.21,199.15l.55-1.33c.19-.67.19-.89,0-.89s-.74.45-1.66,1.33C637.28,198.26,637.65,198.48,638.21,199.15Z"/><path class="cls-52" d="M616.61,280.13V280C616.56,280.08,616.55,280.13,616.61,280.13Z"/><path class="cls-53" d="M602.43,279.52c.05.05.1.12.15.16S602.59,279.55,602.43,279.52Z"/><polygon class="cls-54" points="682.69 125.69 682.54 125.69 682.69 126.39 682.69 125.69"/><polygon class="cls-55" points="596.49 229.02 596.68 229.24 596.82 229.01 596.49 229.01 596.49 229.02"/><polygon class="cls-56" points="643.56 209.77 644.11 209.99 645.04 208 644.3 207.77 643.56 209.77"/><path class="cls-57" d="M614.53,281.41c0,.17,0,.32.05.49A2.46,2.46,0,0,0,614.53,281.41Z"/><rect class="cls-58" x="585.6" y="238.97" width="0.74" height="2.43"/><path class="cls-59" d="M589.85,112.63c0,.21-.09.43-.14.67h.14Z"/><polygon class="cls-60" points="588.92 147.37 588.37 149.36 588.92 149.58 589.48 147.37 588.92 147.37"/><path class="cls-61" d="M660.85,178.31c0-.06-.08-.11-.12-.18C660.64,178.23,660.69,178.28,660.85,178.31Z"/><rect class="cls-62" x="589.29" y="159.98" width="0.74" height="3.54"/><polygon class="cls-63" points="604.06 195.83 604.06 196.49 605.35 195.83 605.17 195.16 604.06 195.83"/><path class="cls-64" d="M588.19,143.83l-.74-.44-.48,1.32a3.28,3.28,0,0,0,.2.31l.46.14Z"/><rect class="cls-65" x="646.33" y="207.55" width="1.66" height="0.89"/><path class="cls-66" d="M789,131.88c-2.21-2.43-4.06-3.54-5.53-3.54a29.6,29.6,0,0,0-6.47,1.33c-3.13.88-4.79,1.55-5.35,2.21-6.46,6.42-11.44,11.51-14.95,14.83-10.71,12.17-17.17,19.69-19.2,22.56-6.83,9.52-11.81,14.83-14.76,15.94a52.52,52.52,0,0,1,3.14-16.82c1.29-5.31,2.76-8.85,4.24-10.62a7.61,7.61,0,0,0,.55-4.87c-1.84-2-6.64-2.21-14.39-.88-.93-1.55-1.85-2.22-3.14-2.22s-4.25,0-4.43,2.88a183.51,183.51,0,0,1-2.22,25,167.91,167.91,0,0,0-4.22,25,8.59,8.59,0,0,1,.53,2.44c-.74,2.21-.92,4-.37,5.53,2,3.76,4.43,5.75,7.57,5.75.92,0,0,1.33.92,1.33.74,0,1.3-1.33,2.22-1.33,1.29,0,4.8-2.65,5.72-2.65,2.4,2.43,1.29,1.1,2.22,1.1,1.84,0,4.06-1.1,6.46-3.31,3.13-4.21,4.79-6.86,5.16-8l2.22-10,8.12-11.94q-.27-3.66,4.43-11.29l7.2-10.84c2.77-4.2,5.91-8.41,9.41-12.83,4.62-6,8.49-8.85,11.45-8.85,2,0,2.58,2.21,1.47,6.85-3.13,13.5-3.69,21.25-1.47,23.24,10.33,5.53,15.69,6,15.87,1.1-.37-2.43-.37-4.2,0-5.09a61.57,61.57,0,0,1,.19-8c.37-4.2.55-6.86.55-8.19,0-3.76-.74-6.64-2-8.63A12.7,12.7,0,0,0,789,131.88Z"/><path class="cls-67" d="M702.28,202.68a.8.8,0,0,0,0,.23C702.27,202.83,702.27,202.76,702.28,202.68Z"/><polygon class="cls-68" points="975.44 117.5 974.7 117.28 974.33 118.61 974.89 118.83 975.44 117.5"/><polygon class="cls-69" points="973.04 121.04 973.6 121.48 974.52 119.71 973.97 119.27 973.04 121.04"/><path class="cls-70" d="M1097.51,185.87a10.92,10.92,0,0,0-2-5.31c-.55,3.32-3.88,10-9.78,19.47-7.39,12.17-13.85,18.14-19.38,18.14-2,0-4.25-2.21-6.28-6.63s-3.14-8.19-3.14-11.29a111.42,111.42,0,0,1,3-25.66l4.79-19.25,2.77-17.48,1.66-5.76a17.1,17.1,0,0,0,1.3-6c0-3.32-.74-5.09-2-5.75a19.48,19.48,0,0,0-3.74,1.72c-3.66-3.28-5.87-4.82-6.79-5l-1.29-1.55c-.92-.22-1.84-1.77-2.77-1.77s-1.84,1.77-2.39,1.77c-.74,0-.37-.67-1.11-.67-1.29,0-4.62,2.66-9.79,7.75-5,5.09-8.3,8.85-9.59,11.73l-3.33,6.63a167.78,167.78,0,0,1-9.23,15.93l-2.21,5.31c-2.22,2.66-5.35,5.54-6.09,8.86-.29,2-.48,3.75-.59,5.29l-2.55,6.21a2.88,2.88,0,0,1-.37-1.55c-1.29,2-3.51,6.2-7,12.17-2.21,4.21-3.87,6.86-5.16,8l-6.1,8.18c-2.76,3.76-5.35,5.76-7.75,5.76-1.29,0-7.2-4.21-10.33-7.53a12.65,12.65,0,0,1-3-5.75,115.17,115.17,0,0,1-3.32-28.32c0-.66.37-6.64.37-7.52V153.57a33,33,0,0,1,3.51-14.17c2.4-5.08,3.5-7.52,3.5-7.3a5.53,5.53,0,0,0-1.47-2.87l-1.85,4.42a3.94,3.94,0,0,1-2,2c1.66-5.53,3-9.73,4.06-12.83-.18,0-.37.22-.92.88a2.05,2.05,0,0,1-.37-1.32,10.84,10.84,0,0,1-1.48,2.65c.19,0,.56-.44,1.29-.44-.92,2.88-1.47,4.42-1.84,4.65l-.74-.89v-3.76c.55-3.76.92-7.3,1.48-10.4a58.59,58.59,0,0,0-.19-6.42c2.4-11.72,4.06-19,5.17-21.46.55.67.74.89.55.89,1.3,7.74,2,12.61,2.22,14.82l.55-8.19c.19-2.21.74-3.76,1.48-4.42a7.67,7.67,0,0,1,2.21,3.32c0-2.44,1.3-2.66,1.3-6.42a32.87,32.87,0,0,0-1.3-7.3,17.37,17.37,0,0,1-.55-7.3c-.74-7.3-2.4-11.06-4.8-11.06-.74,0-.55.66-1.29.66-.18,0-1.29-.89-3-2.88s-3.33-3.32-5-3.54a15.29,15.29,0,0,1,.56,4.65c0,5.09-1.11,11.06-3.51,18.36l-9.78,43.37c-.74-.66-3-5.31-3.7-5.31-.55,0,0,.44-.73.44s-2.77-1.55-6.28-4.64c-3.32-3.1-5.35-4.65-6.27-4.65-.74,0-.56.44-1.3.44-.92,0-1.29-.44-1.29-1.55a98.55,98.55,0,0,0-22,32.75c-3.51,6.42-6.83,13.06-10.16,19.69-4.43,8.63-7.38,15.49-8.67,20.14-.49,2.63-.9,5-1.23,7.1a135.77,135.77,0,0,1-8,14.36c-7.38,12.17-13.84,18.14-19.38,18.14-2,0-4.25-2.21-6.28-6.63s-3.14-8.19-3.14-11.29a112,112,0,0,1,3-25.66l4.8-19.25,2.76-17.48,1.67-5.76a17.28,17.28,0,0,0,1.29-6c0-3.32-.74-5.09-2-5.75a19.48,19.48,0,0,0-3.74,1.72c-3.66-3.28-5.86-4.82-6.78-5l-1.3-1.55c-.92-.22-1.84-1.77-2.76-1.77s-1.85,1.77-2.4,1.77c-.74,0-.37-.67-1.11-.67-1.29,0-4.62,2.66-9.78,7.75-5,5.09-8.31,8.85-9.6,11.73L824.33,141a170,170,0,0,1-9.23,15.93l-2.22,5.31c-2.21,2.66-5.35,5.54-6.09,8.86a64.06,64.06,0,0,0-.74,8.85L804.21,185a27.26,27.26,0,0,0-1.67,6.64c0,1.33.93,4.21,2.77,8.85a51.47,51.47,0,0,0,3.88,7.53c2.21,1.1,2.58.66,4.61,3.09,1.11,1.11,1.85,1.55,2.22,1.55.74,0,4.43-1.77,5.72-1.77-.18-1.55.74-2.65,2.77-3.1,2.77-.88,4.06-1.32,4.24-1.54,6.47-6.2,11.08-11.07,14-14.39q.29,22.91,8.86,31.2c3.14,2.88,8.31,5.09,15.88,6.2-.92-.22.18-.22,3.32-.22,5.17,0,10.52-4.43,15.87-13.06a69.67,69.67,0,0,0,4-7.15c.16.25.31.5.47.73A77.74,77.74,0,0,0,898.9,218c1.29,1.33,2.4,2,3.13,2,1.67,0,3.14,2,4.43,2,3.33,0,5,0,4.8-.22-.55-1.1-.55-2-.18-2.43,1.11,0,1.66,0,1.66.22l.74.89h1.29c.19-.89,1.85-2.44,4.61-4.87,2.77-2.21,4.44-4.43,4.62-6.64,0,0,.37,1.11,1.29,1.11.37,0,1.11-.45,2-1.55-.55-1.11-.55-2-.18-2.44.37,0,.92.45,1.66,1.55a11.45,11.45,0,0,0,0-3.54h1.66c.18-2.21.55-3.76,1.11-4.42l.92,1.1c.55-1.1.92-3.09,3-3.09a62.6,62.6,0,0,0,3.51-8.19,2.27,2.27,0,0,0,1.29.89c5.54-8.63,8.31-13.28,8.49-13.72,1.3,7.08,2.4,14.16,3.51,21,1.85,8.18,4.62,13.94,8.12,17.25.19,1.11.93,2.22,2.59,3.77s2.4,2.65,2.4,3.31a4,4,0,0,1,.37-1.1l.73,1.1a3.93,3.93,0,0,1,4.25,2c.55,0,.74.22.74.88.55-.66.92-1.11,1.47-1.11a5.58,5.58,0,0,0,1.3,2c.18,0,.37-.89,1.1-.89s3.33,1.55,3.88,1.55a9.25,9.25,0,0,0,4.06-1.11,60.64,60.64,0,0,1,6.09-3.09l5-7.31a121,121,0,0,1,10-10.84,18,18,0,0,0,1.48-5.31l1.45-1.68c.38,1,.81,2.16,1.32,3.45a50.39,50.39,0,0,0,3.88,7.53c2.21,1.1,2.58.66,4.61,3.09,1.11,1.11,1.85,1.55,2.22,1.55.74,0,4.43-1.77,5.72-1.77-.19-1.55.74-2.65,2.77-3.1,2.77-.88,4.06-1.32,4.24-1.54,6.46-6.2,11.08-11.07,14-14.39q.29,22.91,8.86,31.2c3.14,2.88,8.31,5.09,15.88,6.2-.93-.22.18-.22,3.32-.22,5.17,0,10.52-4.43,15.87-13.06,5-8,7.39-14.6,7.39-19.69,0,.88.18-.44.37-3.76A36.92,36.92,0,0,0,1097.51,185.87Zm-255.1-17.26c0,.22-1.47,3.76-4.24,10.62a64.78,64.78,0,0,1-5,11.07c-.74,1.1-3.14,3.09-7.2,5.75-4.06,2.43-6.65,3.76-7.94,3.54h-2.58v-2.88c0-4.2,2.39-11.73,7-22.12,3.69-8.19,6.27-13.5,7.94-15.71,9.78-13.72,16.79-21,21.22-21.69C848,150.69,844.81,161.31,842.41,168.61Zm104.11-3.32-.55-.44.55-1.11.55.22Zm2.4-7.3a44.09,44.09,0,0,1-5.35,8.63l-.93-.89L941.9,168a4.86,4.86,0,0,0-3.5,2.65l-2.22,4c-.18,0-.37-1.33-.55-1.55a11.34,11.34,0,0,0-2.22,4.42l-1.84-.44a3.61,3.61,0,0,0-.37,2c-.93-.66-3,.89-2.77,2.43H927l-.74-.88c-1.47,2-2.21,3.32-2.21,4.2-2.77.67-9.23,6.42-14.58,11.51h-1.48c0-.66-.37-2.88-.37-3.76,0-.67,1.29-4.87,1.48-6,2-17.92,5.35-32.52,9.78-43.81a67.14,67.14,0,0,1,7.57-14.6q6.36-9.63,11.07-9.29c3.51,5.75,6.28,10.17,8.5,13.49.92,3.1,1.66,5.54,2,7.53,0,0,1.47,1.55,1.47,2.43C949.47,149.36,949.29,154.67,948.92,158Zm96.72,10.62c0,.22-1.47,3.76-4.24,10.62a63.89,63.89,0,0,1-5,11.07c-.74,1.1-3.13,3.09-7.2,5.75-4.06,2.43-6.64,3.76-7.93,3.54h-2.59v-2.88c0-4.2,2.4-11.73,7-22.12,3.69-8.19,6.27-13.5,7.93-15.71,9.79-13.72,16.8-21,21.23-21.69C1051.18,150.69,1048,161.31,1045.64,168.61Z"/><path class="cls-71" d="M140.08,343.3v32.08H131.8V343.3Z"/><path class="cls-71" d="M206.24,343.3v32.08h-7.59v-21.2h-.1l-11.46,16h-3.53l-11.45-15.92H172v21.16h-7.64V343.3h7.88l13.08,18.27L198.4,343.3Z"/><path class="cls-71" d="M234.1,375.38h-8.47L241,343.3h8.82l15.42,32.08h-8.47l-2.89-6.46h-17Zm5.14-11.95h12.24l-6.12-13.91h-.09Z"/><path class="cls-71" d="M314.51,350.21l-5.68,2.35c-2-2.45-5-3.77-9-3.77-6.81,0-10,3.18-10,8.91v4.16c0,5.34,3.42,8,9.45,8,3.62,0,6.07-1,8-3.09V363h-6.07v-4.65h13.32v17H307.9v-2.69h-.1a17.43,17.43,0,0,1-10.43,3.08c-9.55,0-15.77-4.85-15.77-13.76v-4.36c0-9,5.68-14.84,17.38-14.84C306.48,342.81,312.45,346.14,314.51,350.21Z"/><path class="cls-71" d="M365,343.3v6.27H345.46v6.86H360.1v5.48H345.46v7.3h20v6.17h-28.3V343.3Z"/><path class="cls-71" d="M428.75,343.3v32.08h-7.59v-21.2h-.1l-11.45,16h-3.53l-11.46-15.92h-.1v21.16h-7.64V343.3h7.89l13.07,18.27,13.08-18.27Z"/><path class="cls-71" d="M491.82,343.3v32.08h-8.27V343.3Z"/><path class="cls-71" d="M522.53,343.3l18,20.23h.1V343.3H548v32.08h-6l-18.41-20.67h-.1v20.67h-7.4V343.3Z"/><path class="cls-71" d="M599.12,343.3v6.37H587.71v25.71h-8.28V349.67H568V343.3Z"/><path class="cls-71" d="M646.91,343.3v6.27H627.42v6.86h14.64v5.48H627.42v7.3h20v6.17h-28.3V343.3Z"/><path class="cls-71" d="M676.78,343.3V369h17.48v6.42H668.85V343.3Z"/><path class="cls-71" d="M723.79,343.3v32.08h-8.27V343.3Z"/><path class="cls-71" d="M779.37,350.21l-5.68,2.35c-2-2.45-5-3.77-9-3.77-6.81,0-10,3.18-10,8.91v4.16c0,5.34,3.43,8,9.45,8,3.63,0,6.07-1,8-3.09V363h-6.07v-4.65h13.32v17h-6.71v-2.69h-.1a17.39,17.39,0,0,1-10.43,3.08c-9.54,0-15.76-4.85-15.76-13.76v-4.36c0-9,5.68-14.84,17.38-14.84C771.34,342.81,777.32,346.14,779.37,350.21Z"/><path class="cls-71" d="M829.81,343.3v6.27H810.32v6.86H825v5.48H810.32v7.3h20v6.17h-28.3V343.3Z"/><path class="cls-71" d="M858.16,343.3l18,20.23h.09V343.3h7.35v32.08h-6l-18.41-20.67h-.1v20.67h-7.39V343.3Z"/><path class="cls-71" d="M934.75,343.3v6.37H923.34v25.71h-8.27V349.67H903.66V343.3Z"/><path class="cls-71" d="M982.55,343.3v6.27H963.06v6.86H977.7v5.48H963.06v7.3h20v6.17h-28.3V343.3Z"/></svg>