<svg width="776" height="680" viewBox="0 0 776 680" fill="none" xmlns="http://www.w3.org/2000/svg">
<path d="M470.835 120.158C424.897 25.4142 183.945 -28.5313 87.6392 16.1969C30.1712 42.8937 3.49005 96.0407 0.750306 182.538C-2.1773 274.977 6.96951 365.709 50.8719 415.267C89.3065 458.641 152.99 450.05 203.303 419.072C254.29 387.678 232.427 336.042 284.92 302.582C341.449 266.546 395.195 308.335 441.868 273.803C485.254 241.705 495.884 171.822 470.835 120.158Z" fill="#F0EFEF"/>
<path d="M481.888 133.395C437.524 37.8995 198.818 -10.9188 102.512 33.8094C45.0441 60.5062 18.363 113.653 15.6232 200.151C12.6956 292.59 12.8208 372.136 56.7193 421.678C95.1539 465.052 167.874 467.663 218.176 436.684C269.163 405.291 247.3 353.654 299.793 320.194C356.322 284.159 410.067 325.948 456.741 291.415C500.127 259.317 505.727 184.706 481.888 133.395Z" fill="#F8F8F8"/>
<path d="M272.363 404.544C282.719 372.841 294.633 356.238 304.066 348.575C310.328 343.487 322.07 332.246 347.51 327.831C373.017 323.404 384.301 329.788 451.229 325.483C494.395 322.708 492.282 305.299 539.292 287.126C558.54 279.69 643.644 246.789 694.283 273.428C703.249 278.148 718.009 292.754 725.269 301.095C776.08 359.467 776.62 489.123 715.026 572.059C628.349 688.764 352.665 642.78 322.136 620.079C303.709 606.38 289.314 588.736 281.365 572.059C265.948 539.722 259.447 444.074 272.363 404.544Z" fill="#F0EFEF"/>
<path d="M288.801 421.374C299.157 389.671 311.071 373.068 320.504 365.405C326.766 360.317 338.441 348.677 363.948 344.661C387.107 341.017 400.739 346.618 467.667 342.313C510.834 339.538 508.72 322.129 555.73 303.956C574.979 296.52 660.083 263.62 710.721 290.258C782.463 327.999 801.861 494.106 731.465 588.889C627.441 728.953 345.467 688.874 297.803 588.889C282.386 556.552 275.885 460.904 288.801 421.374Z" fill="#F8F8F8"/>
</svg>
