<svg id="Layer_1" data-name="Layer 1" xmlns="http://www.w3.org/2000/svg" xmlns:xlink="http://www.w3.org/1999/xlink" viewBox="0 0 1070.16 834.82">
  <defs>
    <linearGradient id="linear-gradient" x1="6549.31" y1="258.35" x2="6558.16" y2="244.36" gradientTransform="matrix(-1, 0, 0, 1, 7032.15, 0)" gradientUnits="userSpaceOnUse">
      <stop offset="0" stop-color="#e6e7e8"/>
      <stop offset="1" stop-color="#bcbec0"/>
    </linearGradient>
    <linearGradient id="linear-gradient-2" x1="6565.03" y1="222.43" x2="6540.48" y2="209.3" xlink:href="#linear-gradient"/>
    <linearGradient id="linear-gradient-3" x1="6493.01" y1="187.49" x2="6547.46" y2="187.49" xlink:href="#linear-gradient"/>
    <linearGradient id="linear-gradient-4" x1="6476.53" y1="146.33" x2="6573.08" y2="146.33" xlink:href="#linear-gradient"/>
    <linearGradient id="linear-gradient-5" x1="6475.89" y1="122.68" x2="6528.34" y2="122.68" xlink:href="#linear-gradient"/>
    <linearGradient id="linear-gradient-6" x1="6432.04" y1="178.48" x2="6450.66" y2="165.64" xlink:href="#linear-gradient"/>
    <linearGradient id="linear-gradient-7" x1="6418.95" y1="116.91" x2="6402.03" y2="113.7" xlink:href="#linear-gradient"/>
    <linearGradient id="linear-gradient-8" x1="6396.04" y1="187.15" x2="6367.56" y2="171.74" xlink:href="#linear-gradient"/>
    <linearGradient id="linear-gradient-9" x1="6424.81" y1="222.3" x2="6417.32" y2="186.34" xlink:href="#linear-gradient"/>
    <linearGradient id="linear-gradient-10" x1="6427.93" y1="260.06" x2="6465.08" y2="260.06" xlink:href="#linear-gradient"/>
    <linearGradient id="linear-gradient-11" x1="6430.07" y1="286.15" x2="6465.08" y2="286.15" xlink:href="#linear-gradient"/>
    <linearGradient id="linear-gradient-12" x1="6409.38" y1="272.21" x2="6427.93" y2="272.21" xlink:href="#linear-gradient"/>
    <linearGradient id="linear-gradient-13" x1="6466.95" y1="202.61" x2="6461.6" y2="172.42" xlink:href="#linear-gradient"/>
    <linearGradient id="linear-gradient-14" x1="6495.19" y1="263.95" x2="6482.77" y2="237.19" xlink:href="#linear-gradient"/>
    <linearGradient id="linear-gradient-15" x1="6576.39" y1="196.63" x2="6579.17" y2="175.11" xlink:href="#linear-gradient"/>
    <linearGradient id="linear-gradient-16" x1="6620.44" y1="224.83" x2="6636.85" y2="214.55" xlink:href="#linear-gradient"/>
    <linearGradient id="linear-gradient-17" x1="6637.04" y1="184.6" x2="6635.22" y2="168.33" xlink:href="#linear-gradient"/>
    <linearGradient id="linear-gradient-18" x1="6573.08" y1="136.27" x2="6638.59" y2="136.27" xlink:href="#linear-gradient"/>
    <linearGradient id="linear-gradient-19" x1="6588.61" y1="169.08" x2="6604.13" y2="157.84" xlink:href="#linear-gradient"/>
    <linearGradient id="linear-gradient-20" x1="6316.71" y1="229.92" x2="6367.97" y2="194.55" xlink:href="#linear-gradient"/>
    <linearGradient id="linear-gradient-21" x1="6306.42" y1="253.99" x2="6313" y2="234.23" xlink:href="#linear-gradient"/>
    <linearGradient id="linear-gradient-22" x1="6389.01" y1="279.85" x2="6368.13" y2="237.61" xlink:href="#linear-gradient"/>
    <style>
      .cls-1{fill:#d1d3d4;}.cls-2{fill:url(#linear-gradient);}.cls-3{fill:#fff;}.cls-4{fill:#e6e7e8;}.cls-5{fill:url(#linear-gradient-2);}.cls-6{fill:url(#linear-gradient-3);}.cls-7{fill:url(#linear-gradient-4);}.cls-8{fill:url(#linear-gradient-5);}.cls-9{fill:url(#linear-gradient-6);}.cls-10{fill:url(#linear-gradient-7);}.cls-11{fill:url(#linear-gradient-8);}.cls-12{fill:url(#linear-gradient-9);}.cls-13{fill:url(#linear-gradient-10);}.cls-14{fill:url(#linear-gradient-11);}.cls-15{fill:url(#linear-gradient-12);}.cls-16{fill:url(#linear-gradient-13);}.cls-17{fill:url(#linear-gradient-14);}.cls-18{fill:url(#linear-gradient-15);}.cls-19{fill:url(#linear-gradient-16);}.cls-20{fill:url(#linear-gradient-17);}.cls-21{fill:url(#linear-gradient-18);}.cls-22{fill:url(#linear-gradient-19);}.cls-23{fill:url(#linear-gradient-20);}.cls-24{fill:url(#linear-gradient-21);}.cls-25{fill:url(#linear-gradient-22);}.cls-26{fill:#e0bf24;}.cls-27{fill:#f2d145;}.cls-28{fill:#9e732b;}
    </style>
  </defs>
  <title>
    logotipos Paula
  </title>
  <polygon class="cls-1" points="429.31 243.1 457.78 264.93 454.68 245.56 429.31 243.1"/>
  <polygon class="cls-2" points="508.31 252.41 457.78 264.93 454.68 245.56 508.31 252.41"/>
  <polygon class="cls-3" points="508.31 252.41 457.78 264.93 487.11 276.92 508.31 252.41"/>
  <polygon class="cls-4" points="429.31 243.1 426.1 192.36 454.68 245.56 429.31 243.1"/>
  <polygon class="cls-3" points="508.31 252.41 426.1 192.36 454.68 245.56 508.31 252.41"/>
  <polygon class="cls-5" points="508.31 252.41 426.1 192.36 495.39 215.87 508.31 252.41"/>
  <polygon class="cls-3" points="484.69 195.22 426.1 192.36 495.39 215.87 484.69 195.22"/>
  <polygon class="cls-4" points="484.69 195.22 539.13 196.43 495.39 215.87 484.69 195.22"/>
  <polygon class="cls-6" points="484.69 195.22 539.13 196.43 515.69 178.55 484.69 195.22"/>
  <polygon class="cls-4" points="555.62 159.39 539.13 196.43 515.69 178.55 555.62 159.39"/>
  <polygon class="cls-3" points="555.62 159.39 459.07 144.41 515.69 178.55 555.62 159.39"/>
  <polygon class="cls-7" points="555.62 159.39 459.07 144.41 506.38 133.28 555.62 159.39"/>
  <polygon class="cls-3" points="503.81 85.96 459.07 144.41 506.38 133.28 503.81 85.96"/>
  <polygon class="cls-4" points="503.81 85.96 555.62 159.39 506.38 133.28 503.81 85.96"/>
  <polygon class="cls-8" points="503.81 85.96 555.62 159.39 556.26 125.46 503.81 85.96"/>
  <polygon class="cls-3" points="591.48 118.4 556.26 125.46 503.81 85.96 591.48 118.4"/>
  <polygon class="cls-1" points="591.48 118.4 555.62 159.39 556.26 125.46 591.48 118.4"/>
  <polygon class="cls-4" points="591.48 118.4 555.62 159.39 583.98 157.89 591.48 118.4"/>
  <polygon class="cls-3" points="591.48 118.4 612.13 146.33 583.98 157.89 591.48 118.4"/>
  <polygon class="cls-9" points="590.62 212.38 612.13 146.33 583.98 157.89 590.62 212.38"/>
  <polygon class="cls-4" points="590.62 212.38 612.13 146.33 617.81 181.23 590.62 212.38"/>
  <polygon class="cls-3" points="664.15 133.28 612.13 146.33 617.81 181.23 664.15 133.28"/>
  <polygon class="cls-4" points="664.15 133.28 612.13 146.33 632.4 123.28 664.15 133.28"/>
  <polygon class="cls-3" points="664.15 133.28 622.27 85.96 632.4 123.28 664.15 133.28"/>
  <polygon class="cls-10" points="612.13 146.33 622.27 85.96 632.4 123.28 612.13 146.33"/>
  <polygon class="cls-1" points="664.15 133.28 624.01 232.39 617.81 181.23 664.15 133.28"/>
  <polygon class="cls-11" points="664.15 133.28 624.01 232.39 671.81 164.61 664.15 133.28"/>
  <polygon class="cls-3" points="664.15 133.28 706.04 157.89 671.1 164.61 664.15 133.28"/>
  <polygon class="cls-4" points="624.01 232.39 706.04 157.89 671.1 164.61 624.01 232.39"/>
  <polygon class="cls-12" points="590.62 212.38 624.01 232.39 617.81 181.23 590.62 212.38"/>
  <polygon class="cls-3" points="590.62 212.38 624.01 232.39 598.86 247.81 590.62 212.38"/>
  <polygon class="cls-4" points="590.62 212.38 567.07 272.32 598.86 247.81 590.62 212.38"/>
  <polygon class="cls-13" points="604.21 267.29 567.07 272.32 598.86 247.81 604.21 267.29"/>
  <polygon class="cls-3" points="604.21 267.29 567.07 272.32 594.37 280.85 604.21 267.29"/>
  <polygon class="cls-4" points="604.21 267.29 602.07 299.97 594.37 280.85 604.21 267.29"/>
  <polygon class="cls-14" points="567.07 272.32 602.07 299.97 594.37 280.85 567.07 272.32"/>
  <polygon class="cls-1" points="604.21 267.29 624.01 232.39 598.86 247.81 604.21 267.29"/>
  <polygon class="cls-4" points="604.21 267.29 624.01 232.39 614.99 264.01 604.21 267.29"/>
  <polygon class="cls-3" points="622.77 280.42 624.01 232.39 614.99 264.01 622.77 280.42"/>
  <polygon class="cls-15" points="622.77 280.42 604.21 267.29 614.99 264.01 622.77 280.42"/>
  <polygon class="cls-3" points="590.62 212.38 555.62 159.39 583.98 157.89 590.62 212.38"/>
  <polygon class="cls-16" points="590.62 212.38 555.62 159.39 539.13 196.43 590.62 212.38"/>
  <polygon class="cls-1" points="484.69 195.22 459.07 144.41 515.69 178.55 484.69 195.22"/>
  <polygon class="cls-1" points="508.31 252.41 539.13 196.43 495.39 215.87 508.31 252.41"/>
  <polygon class="cls-4" points="508.31 252.41 539.13 196.43 552.83 233.68 508.31 252.41"/>
  <polygon class="cls-17" points="508.31 252.41 567.07 272.32 552.83 233.68 508.31 252.41"/>
  <polygon class="cls-1" points="590.62 212.38 567.07 272.32 552.83 233.68 590.62 212.38"/>
  <polygon class="cls-3" points="590.62 212.38 539.13 196.43 552.83 233.68 590.62 212.38"/>
  <polygon class="cls-3" points="453.71 174.52 426.1 192.36 459.07 144.41 453.71 174.52"/>
  <polygon class="cls-4" points="453.71 174.52 484.69 195.22 459.07 144.41 453.71 174.52"/>
  <polygon class="cls-18" points="453.71 174.52 484.69 195.22 426.1 192.36 453.71 174.52"/>
  <polygon class="cls-3" points="364.37 174.52 395.24 207.45 426.1 192.36 364.37 174.52"/>
  <polygon class="cls-4" points="364.37 174.52 395.24 207.45 397.2 257.23 364.37 174.52"/>
  <polygon class="cls-19" points="426.1 192.36 395.24 207.45 397.2 257.23 426.1 192.36"/>
  <polygon class="cls-20" points="364.37 174.52 391.2 168.38 426.1 192.36 364.37 174.52"/>
  <polygon class="cls-4" points="393.56 143.12 391.2 168.38 426.1 192.36 393.56 143.12"/>
  <polygon class="cls-3" points="364.37 174.52 391.2 168.38 393.56 143.12 364.37 174.52"/>
  <polygon class="cls-4" points="459.07 144.41 393.56 143.12 426.1 159.39 459.07 144.41"/>
  <polygon class="cls-3" points="393.56 143.12 426.1 192.36 426.1 159.39 393.56 143.12"/>
  <polygon class="cls-21" points="459.07 144.41 393.56 143.12 450.08 128.14 459.07 144.41"/>
  <polygon class="cls-3" points="503.81 85.96 393.56 143.12 450.08 128.14 503.81 85.96"/>
  <polygon class="cls-4" points="503.81 85.96 459.07 144.41 450.08 128.14 503.81 85.96"/>
  <polygon class="cls-1" points="429.31 243.1 397.2 257.23 426.1 192.36 429.31 243.1"/>
  <polygon class="cls-22" points="459.07 144.41 426.1 192.36 426.1 159.39 459.07 144.41"/>
  <polygon class="cls-23" points="624.01 232.39 706.04 157.89 742.57 215.05 624.01 232.39"/>
  <polygon class="cls-3" points="624.01 232.39 706.04 157.89 667.65 234.5 624.01 232.39"/>
  <polygon class="cls-4" points="692.92 265.27 706.04 157.89 667.65 234.5 692.92 265.27"/>
  <polygon class="cls-4" points="706.04 157.89 721.17 232.39 755.22 235.28 706.04 157.89"/>
  <polygon class="cls-3" points="706.04 157.89 721.17 232.39 692.92 265.27 706.04 157.89"/>
  <polygon class="cls-24" points="756.06 235.28 721.17 232.39 692.92 265.27 756.06 235.28"/>
  <polygon class="cls-4" points="714.05 262.86 692.92 265.27 755.22 235.28 714.05 262.86"/>
  <polygon class="cls-25" points="692.92 265.27 644.96 272.32 624.01 232.39 667.65 234.5 692.92 265.27"/>
  <polygon class="cls-26" points="692.6 193.01 700.57 200.82 689.73 203.44 692.6 193.01"/>
  <polygon class="cls-27" points="693.48 209.43 700.57 200.82 689.73 203.44 693.48 209.43"/>
  <polygon class="cls-26" points="693.48 209.43 700.57 200.82 707.69 209.4 693.48 209.43"/>
  <polygon class="cls-28" points="710.33 195.41 700.57 200.82 707.69 209.4 710.33 195.41"/>
  <polygon class="cls-26" points="710.33 195.41 700.57 200.82 702.38 189.81 710.33 195.41"/>
  <polygon class="cls-27" points="692.6 193.01 700.57 200.82 702.38 189.81 692.6 193.01"/>
</svg>
